<svg xmlns="http://www.w3.org/2000/svg" xmlns:xlink="http://www.w3.org/1999/xlink" width="429" height="413" viewBox="0 0 429 413"><defs><filter id="wnlhbjxw5a" width="135%" height="166.9%" x="-17.5%" y="-33.4%"><feGaussianBlur stdDeviation="3.564"></feGaussianBlur></filter><filter id="l2z5wnv23b" width="239.9%" height="115.9%" x="-70%" y="-7.9%"><feGaussianBlur stdDeviation="2.376"></feGaussianBlur></filter><filter id="3fvyyxbgec" width="199.2%" height="146.2%" x="-49.6%" y="-23.1%"><feGaussianBlur stdDeviation="11.88"></feGaussianBlur></filter><filter id="bd9nt8fusd" width="156.5%" height="214.4%" x="-28.2%" y="-57.2%"><feGaussianBlur stdDeviation="8.316"></feGaussianBlur></filter><filter id="oj411sz70e" width="156.7%" height="113.8%" x="-28.3%" y="-6.9%"><feGaussianBlur stdDeviation="2.376"></feGaussianBlur></filter><filter id="jb4ada90xf" width="168%" height="159.7%" x="-42%" y="-26.3%"><feGaussianBlur stdDeviation="2.5"></feGaussianBlur></filter><filter id="moige59i7h" width="189.8%" height="299.1%" x="-44.9%" y="-99.5%"><feGaussianBlur stdDeviation="4.752"></feGaussianBlur></filter><path id="gk2350kqcg" d="M148.036 68.871c-.833 6.856-2.47 11.237-4.911 13.145-3.661 2.862 2.161 9.15 5.893 10.941.552 1.394.828 2.75.828 4.068 0 1.317 5.702-1.14 17.105-7.373l-18.915-20.78z"></path></defs><g fill="none" fill-rule="evenodd"><g><g><path fill="#EFEFF4" fill-rule="nonzero" d="M76.155 309.522c28.778 20.393 56.641 32.221 90.97 40.298 34.33 8.076 69.388 18.47 104.362 14.198 36.928-4.511 66.912-4.428 107.667-35.662 29.516-22.638 49.904-67.343 49.53-104.543-.26-26.163-11.367-51.046-30.67-68.713-19.304-17.667-45.074-26.536-71.165-24.49-16.936 1.33-33.862 7.203-50.549 4.085-21.833-4.074-37.989-22.576-49.238-41.7-11.25-19.125-13.588-53.623-30.306-68.216C164.63-3.285 106.399-7.027 76.156 11.1 43.322 30.85 11.207 68.33 3.315 105.79c0 0-26.958 132.99 72.84 203.732z" transform="translate(-1104.000000, -3933.000000) translate(1104.000000, 3933.000000) translate(214.344189, 182.505734) scale(-1, 1) translate(-214.344189, -182.505734)"></path><g transform="translate(-1104.000000, -3933.000000) translate(1104.000000, 3933.000000) translate(195.000000, 223.000000) scale(-1, 1) translate(-195.000000, -223.000000) translate(46.000000, 44.000000)"><path fill="#FAFAFA" fill-rule="nonzero" d="M200.71 327.732l5.14 5.13c.561.546 1.31.856 2.094.867.79.003 1.549-.309 2.107-.866.559-.558.871-1.314.868-2.103-.01-.782-.321-1.53-.869-2.09l-5.14-5.13c-.553-.563-1.31-.88-2.1-.88s-1.548.317-2.1.88c-.56.553-.878 1.305-.881 2.09.014.787.33 1.54.88 2.102z"></path><path fill="#455A64" fill-rule="nonzero" d="M219.368 250.37c-3.829.412-7.69.412-11.519 0 3.829-.41 7.69-.41 11.519 0z"></path><path fill="#FFBE9D" fill-rule="nonzero" d="M257.242 126.748c-1.724-5.224 1.39-23.958-2.711-23.988-5.24-.05-3.74 21.14-3.75 23.072-.01 1.933-2.75 1.873-2.65.161.141-2.456 1.008-26.666-4.273-26.243-2.912.232-2.54 5.516-2.54 5.516s1.623 24.22-.856 24.341c-2.479.121-3.366-14.012-3.567-18.985-.202-4.762-2.207-6.654-4.404-5.033-2.197 1.62-1.754 15.935-1.633 20.716.12 4.782.685 17.878-4.847 11.506-5.533-6.372-12.094-9.24-14.432-8.788-2.338.453-2.419 3.826-.05 4.923 1.914.886 4.676 3.342 6.671 5.275 1.546 1.668 2.898 3.505 4.031 5.476 1.553 2.48 2.68 5.202 3.336 8.053.55 2.247 4.249 5.291 6.924 11.351.616 1.397.972 4.089 1.068 8.077l25.547-2.214.494-16.791c.262-12.835 2.51-21.472 3.86-29.102 2.167-12.17.594-12.543-.867-12.473-3.185.111-3.658 20.244-5.351 15.15z"></path><path fill="#FFF" fill-rule="nonzero" d="M144.032 140.497c7.977 4.727 14.03 8.423 18.159 11.09 3.097 2 6.164 3.991 9.203 5.975l3.03 1.982.004.002.038.02c.906.476 16.197 8.634 29.091 23.703 15.197 17.76 28.346 52.526 28.346 52.526 1.086-12.328 1.629-21.574 1.629-27.738 0-8.498-.543-21.245-1.63-38.24l30.576-3.556s5.36 17.642 9.042 36.221c3.059 15.433 4.409 31.337 5.602 39.92 2.451 17.705 4.825 33.475-12.5 42.974-20.444 11.21-43.66-3.93-51.383-9.677-2.301-1.71-5.07-3.68-7.95-5.688l-.722-.503-.726-.503c-4.844-3.356-9.83-6.711-13.306-9.031l-.755-.504c-1.36-.906-2.43-1.615-3.092-2.052l-5.958 59.022 11.876 41.536h-30.962l-.06-16.386-5.555-115.107c-.977-28.682-2.145-48.863-3.504-60.545-1.359-11.682-4.19-20.162-8.493-25.44z"></path><path fill="#53C387" d="M155.039 152.764L144.032 140.497 95.923 136.816 89.688 146.874 106.549 251.891 98.957 357.976 161.644 357.976z"></path><g fill="#000" fill-rule="nonzero" opacity=".3"><path d="M1.311 6.733c1.654-1.758 4.367-4.192 6.783-4.24C25.419 2.114 43.114.38 60.45 0l.667 31.966-8.437-3.943c-.476-3.562-1.083-7.967-4.403-9.499-1.88-.89-4.081-.546-6.116-.142-6.26 1.187-12.47 2.85-18.837 3.241-6.366.392-13.03-.522-18.373-4.001-1.9-1.117-3.428-2.77-4.39-4.75-.963-2.019-.671-4.41.749-6.14z" filter="url(#wnlhbjxw5a)" transform="translate(100.549849, 326.010481)"></path></g><path fill="#263238" fill-rule="nonzero" d="M160.632 242.142c.19-.273.36-.56.512-.855.333-.618.797-1.46 1.368-2.53.571-1.068 1.119-2.529 1.845-4.155.333-.82.618-1.722.952-2.672.333-.95.702-1.947.975-3.028 2.594-8.55 4.32-20.887 3.951-34.507 0-1.057-.071-2.102-.143-3.135v-.178l-.166-.071-4.832-2.03.072.498 4.82-3.859.106-.083v-.119c.044-4.682-.7-9.338-2.201-13.774-1.19-4.026-2.535-7.493-3.7-10.343-1.167-2.85-2.19-5.082-2.916-6.602-.357-.76-.643-1.33-.845-1.722-.094-.203-.206-.397-.333-.581.06.212.14.418.238.617l.773 1.77c.666 1.531 1.63 3.787 2.749 6.649 1.118 2.862 2.38 6.34 3.57 10.354 1.442 4.383 2.15 8.972 2.094 13.585l.107-.202-4.831 3.859-.38.309.451.19 4.82 2.03-.179-.25c.072 1.01.107 2.055.143 3.1.369 13.56-1.273 25.85-3.76 34.436-.262 1.08-.62 2.078-.928 3.028-.31.95-.584 1.852-.905 2.671-.69 1.627-1.19 3.064-1.749 4.18-.56 1.116-.952 1.936-1.261 2.565-.162.273-.301.56-.417.855z" filter="url(#l2z5wnv23b)"></path><path fill="#263238" fill-rule="nonzero" d="M174.816 341.198c.325.975.773 1.905 1.333 2.767 1.241 2.144 2.654 4.185 4.224 6.103 1.576 1.92 3.307 3.707 5.177 5.343.738.72 1.566 1.343 2.463 1.853-.679-.767-1.406-1.489-2.178-2.161-1.762-1.71-3.43-3.513-4.998-5.403-1.552-1.895-2.994-3.878-4.32-5.937-.51-.891-1.078-1.748-1.7-2.565z"></path><g fill="#000" fill-rule="nonzero" opacity=".3"><path d="M69.397 129.656c-3.26-1.698-7.246-.807-10.709.51-3.463 1.319-6.842 3.088-10.52 3.052-4.997 0-12.077-1.864-14.683-6.103-2.867-4.857-4.997-10.11-6.319-15.591-3.974-18.25-4.878-34.27-8.853-52.532-2.165-9.927-4.914-21.374-8.603-30.874C6.14 18.94 2.808 9.44 0 0c.5 21.374 1 42.914 4.308 64.122 2.141 13.62 5.426 27.037 7.223 40.693 1.535 11.696 1.963 23.511 2.38 35.302l11.15 13.608 30.735.618 16.053-20.661-2.452-4.026z" filter="url(#3fvyyxbgec)" transform="translate(90.032842, 155.803443)"></path></g><path fill="#FFF" fill-rule="nonzero" d="M52.61 156.86c4.855-3.307 10.18-6.346 15.974-9.114 5.794-2.769 14.701-6.53 26.72-11.286l.214.665c-2.57 4.394-5.307 12.504-4.343 17.503 9.381 42.268 14.964 73.805 16.748 94.609 1.217 14.19.136 35.147-3.242 62.869L98.957 358h-57.39l20.812-48.887-10.246-91.812.476-60.44z"></path><path fill="#000" fill-rule="nonzero" d="M124.708 330.072l2.35-29.569c-41.532.34-66.357-3.51-74.473-11.547-6.923-6.855-25.495 22.844-3.267 36.401 16.86 10.284 75.39 4.715 75.39 4.715z" filter="url(#bd9nt8fusd)" opacity=".338"></path><path fill="#FFF" fill-rule="nonzero" d="M16.66 200.58C3.6 236.445.146 284.815.002 295.137c-.097 6.777 7.63 30.547 24.361 35.528 36.83 10.964 100.345-.593 100.345-.593l2.35-29.569c-41.532.34-66.357-3.51-74.473-11.547s-4.86-26.67 9.77-55.898l-9.77-76.198c-18.284 13.587-30.26 28.16-35.925 43.72z"></path><path fill="#263238" fill-rule="nonzero" d="M84.38 142.872s0 .072-.083.214c-.083.142-.107.404-.19.665-.143.594-.405 1.449-.63 2.589-.711 3.23-1.22 6.502-1.524 9.796-.462 4.965-.59 9.956-.38 14.938.19 5.676.797 11.957 1.653 18.607v.214h.203l6.52 1.187-.226-.404c-.368.998-.761 2.078-1.059 3.183-1.798 7.282-1.538 14.919.75 22.062 1.822 5.791 4.394 11.32 7.651 16.446 2.713 4.394 5.177 7.778 6.866 10.13l1.976 2.67.523.69c.12.142.19.225.203.213-.047-.086-.098-.17-.155-.25-.12-.2-.286-.427-.476-.723l-1.88-2.743c-1.63-2.375-4.034-5.795-6.7-10.212-3.183-5.118-5.698-10.621-7.484-16.375-2.225-7.05-2.464-14.577-.69-21.754.285-1.08.666-2.137 1.023-3.111l.13-.344-.344-.06-6.521-1.187.238.25c-.869-6.639-1.488-12.896-1.726-18.56-.234-4.96-.15-9.93.25-14.879.268-3.284.717-6.55 1.345-9.784.202-1.188.428-2.007.535-2.613 0-.261.096-.487.131-.677.03-.057.053-.116.072-.178z" filter="url(#oj411sz70e)"></path><path fill="#087EB7" fill-rule="nonzero" d="M84.38 236.193v-14.51s-.19-3.563 2.833-2.827c3.022.736 2.451 6.4 2.451 6.4s.571 22.063-.75 21.873c-1.32-.19-1.832-1.888-1.832-1.888v-8.478l-2.701-.57zM168.2 231.562H195.402V240.02800000000002H168.2zM298 246.129L207.505 342.454 119.235 343 117.141 338.998 204.149 244.93z"></path><path fill="#FFF" fill-rule="nonzero" d="M210.467 245.93s5.878 0 7.627 2.042c2.035 2.446 5.95 7.956-2.594 21.98-3.403 5.616-20.098 24.936-26.964 44.73-6.414 18.477-3.486 24.58-3.486 24.58l63.685-2.03 1.19-2.292s27.69-74.808 20.36-89.058c-3.38-6.495-60.27-2.35-59.818.048z"></path><path fill="#FFBE9D" fill-rule="nonzero" d="M126.802 303.438c5.964-.694 9.843-1.408 11.638-2.142 2.791-1.14 6.898-4.183 10.838-5.735 4.881-1.922 9.387-2.264 9.387-2.264l-5.796 6.312c-1.348 1.455-3.817 2.769-2.356 2.769 4.845.43 8.243.43 10.195 0 7.81-1.72 12.175-4.744 12.96-4.28 1.358.802 1.83 2.258.444 4.28-1.386 2.022-10.933 6.804-12.035 7.172 2.15.674 3.859.872 5.129.596 1.773-.385 4.628-1.576 8.564-3.572.896-.16 2.15-.312 2.554.217.35.365.54.856.525 1.362-.014.507-.23.986-.6 1.331-1.978 1.788-4.075 3.44-6.277 4.943 0 0 2.215 3.27.377 4.923-1.837 1.654-7.153 6.615-7.153 6.615s-.556 2.76-2.205 4.044c-1.65 1.286-19.791 1.286-21.101 1.286-.625 0-2.812-2.25-8.317-3.912-1.457-.44-4.321-.76-8.592-.957l1.821-22.988z"></path><path fill="#9ACBE3" fill-rule="nonzero" d="M259.314 335.332l-68.505.57c-.821-17.313 5.2-29.888 14.16-44.743 3.427-5.688 8.116-10.556 11.53-16.256 3.596-6.003 5.698-12.778 6.13-19.759.178-2.778 0-5.782-1.702-7.98-1.702-2.196-7.818-2.315-10.46-1.187 2.96-2.136 6.45-3.422 10.09-3.716 5.534-.463 50.823-.155 59.248-.083 2.034.088 4.051.415 6.01.973 6.14 3.17 7.4 11.518 6.532 17.527-.821 5.688-4.355 11.055-8.794 17.063-1.29 1.721-2.482 3.513-3.57 5.367-4.676 8.087-17.587 30.767-19.907 38.592-1.125 4.454-1.384 9.081-.762 13.632z"></path><ellipse cx="87.225" cy="24.936" fill="#000" rx="24.989" ry="24.936"></ellipse><ellipse cx="124.708" cy="64.715" fill="#000" rx="49.383" ry="49.279"></ellipse><path fill="#B78876" fill-rule="nonzero" d="M95.923 149.617s0 .297.06.44l-.06-.44z"></path><path fill="#FFBE9D" fill-rule="nonzero" d="M144.032 31.62l-42.967 7.437c-4.304.462-8.335 22.755-8.236 27.073 1.864 13.212 2.915 23.065 3.154 29.56.422 11.53.363 28.714-.179 51.552.068 1.77.472 3.51 1.19 5.13 3.284 7.22 14.208 25.589 37.912 18.156 5.806-1.817 8.46-8.158 9.602-14.665 0-.772.322-1.46.334-2.197.57-4.857.63-9.76.178-14.63.083-8.596-.512-11.871-.512-11.788 0 .083 24.774-4.717 28.498-28.395.82-5.102 1.146-21.164-2.721-34.731-5.053-17.726-18.225-33.37-26.253-32.502z"></path><use fill="#000" filter="url(#jb4ada90xf)" opacity=".392" xlink:href="#gk2350kqcg"></use><path fill="#263238" fill-rule="nonzero" d="M162.19 73.977c.017 2.352-1.003 4.296-2.295 4.38-.613.093-1.221-.27-1.686-1.005-.464-.736-.744-1.782-.778-2.9-.016-2.345.998-4.287 2.287-4.379.614-.093 1.223.269 1.689 1.004.465.735.748 1.78.784 2.9z"></path><ellipse cx="163.381" cy="74.215" stroke="#263238" stroke-width="2.376" rx="10.709" ry="12.468"></ellipse><path fill="#000" fill-rule="nonzero" d="M142.76 125.999c-11.158.168-22.144-2.755-31.737-8.443 0 0 8.02 16.375 31.76 14.107l-.024-5.664z" filter="url(#moige59i7h)" opacity=".361"></path><path fill="#FFBE9D" fill-rule="nonzero" d="M112.11 81.974c-.625 4.197-1.851 6.88-3.678 8.048-2.74 1.753 1.615 5.6 4.407 6.696.413.853.62 1.683.619 2.49 0 .34.967 22.294 2.667 24.6 2.269 3.077 9.169 5.168 10.47 5.033 2.15-.222 9.585-1.938 15.794-5.162 3.05-1.584 6.197-3.32 8.53-5.017 3.38-2.46 6.15-4.99 6.493-5.26 1.991-1.559-3.426-15.962-1.873-18.803.913-1.67-2.193-4.422-9.316-8.26-7.8-.922-12.845-2.498-15.137-4.727-7.539-7.336-7.515-18.13-9.27-19.706-2.554-2.296-5.79 4.394-9.706 20.068z" transform="translate(132.709727, 95.156651) scale(-1, 1) rotate(11.000000) translate(-132.709727, -95.156651)"></path><ellipse cx="133.632" cy="77.777" stroke="#263238" stroke-width="2.376" rx="10.709" ry="12.468"></ellipse><path fill="#F0611B" fill-rule="nonzero" d="M147.358 99.212c3.887 3.724 7.005 5.963 9.356 6.718 1.452 2.217.696 3.324-2.267 3.321-2.14-.002-5.975-1.089-7.995-3.33-2.178-2.417-2.44-6.026-1.813-6.712.807-.882 1.713-.88 2.719.003z" transform="translate(150.886298, 103.899928) rotate(-35.000000) translate(-150.886298, -103.899928)"></path><path fill="#263238" fill-rule="nonzero" d="M138.392 77.54c.021 2.348-.998 4.296-2.291 4.379-.615.093-1.224-.27-1.689-1.005-.465-.735-.746-1.781-.78-2.9-.02-2.348.998-4.296 2.291-4.379.615-.093 1.224.27 1.69 1.005.464.735.746 1.781.779 2.9z"></path><path fill="#000" d="M173.527 61.747c-15.07-3.555-25.592-10.787-31.565-21.697-11.894 21.813-26.033 33.003-42.417 33.571-16.384.568-22.803-9.931-19.255-31.496 8.165-9.972 14.583-16.4 19.255-19.288 14.35-8.868 25.63-8.964 39.988-6.346 8.19 1.493 24.736 8.445 30.542 22.838 3.727 9.242 4.878 16.715 3.452 22.418z"></path><path fill="#FFBE9D" fill-rule="nonzero" d="M100.306 74.249c-2.008-2.944-4.985-3.723-8.931-2.338-3.947 1.385-3.947 6.32 0 14.806 1.482 2.07 3.733 2.78 6.75 2.13 3.017-.648 3.744-5.515 2.18-14.598z"></path><path stroke="#263238" stroke-width="2.376" d="M152.671 74.215c-3.72-.919-6.66-.555-8.816 1.092"></path></g></g></g></g></svg>