<svg width="527" height="396" viewBox="0 0 527 396" fill="none" xmlns="http://www.w3.org/2000/svg">
<path d="M520.353 173.323C520.353 173.323 523.541 183.127 525.341 198.813C525.643 201.468 511.736 216.873 511.736 216.873C511.736 216.873 526.769 206.838 526.839 208.457C527.302 219.176 526.829 231.996 524.587 245.813C524.335 247.361 506.517 247.924 506.215 249.503C505.884 251.242 523.068 254.008 522.686 255.767C517.91 277.457 503.621 335.648 486.627 356.835L452.338 339.318C421.689 309.956 423.66 290.147 428.426 279.187C429.271 277.246 456.733 301.711 456.733 301.711C456.733 301.711 432.66 269.624 433.494 267.804C439.638 254.35 446.939 239.628 454.289 227.441C455.395 225.611 481.469 258.814 482.575 257.115C483.058 256.361 458.573 220.654 459.055 219.94C462.746 214.44 466.386 209.804 469.835 206.496C471.011 205.369 490.911 231.846 490.911 231.846C490.911 231.846 475.245 202.212 478.261 198.994C488.317 188.275 503.43 180.784 520.353 173.323Z" fill="#FDF0E4"/>
<path d="M465.008 296.301L494.953 229.784C495.617 229.362 496.251 228.909 496.904 228.467C499.146 226.959 501.379 225.43 503.611 223.912C509.122 220.171 514.461 216.179 520.022 212.509C526.688 208.115 526.829 208.456 526.829 208.456C526.538 207.401 521.882 210.397 520.132 211.413C517.387 213.002 515.094 214.56 512.4 216.219C507.04 219.528 501.701 222.856 496.482 226.375C496.482 226.375 496.472 226.375 496.472 226.385L520.353 173.333C520.353 173.333 505.029 203.047 492.078 229.452C492.047 229.372 492.007 229.281 491.977 229.201C491.645 228.286 478.593 211.634 478.462 198.823L477.879 199.688C476.894 213.263 490.479 231.142 490.901 231.845C486.547 240.755 485.29 243.61 481.268 252.298C480.896 251.987 480.604 251.383 480.353 251.001C479.86 250.257 479.367 249.523 478.875 248.779C477.135 246.164 475.406 243.55 473.666 240.936C469.644 234.872 465.39 228.97 461.268 222.977C460.302 221.579 459.548 220.674 459.548 220.674C459.548 220.674 463.027 227.089 465.471 231.202C469.151 237.386 472.912 243.52 476.713 249.634C477.246 250.488 477.779 251.343 478.312 252.208C478.875 253.113 479.398 254.048 480.272 254.45C470.619 275.446 463.45 293.113 465.008 296.301Z" fill="#ECD4BE"/>
<path d="M81.088 51.9253C81.088 51.9253 102.434 62.011 131.382 83.6143C136.278 87.2618 132.104 169.024 132.104 169.024C132.104 169.024 147.012 93.8224 149.803 96.2337C169.019 112.843 190.439 134.63 210.537 161.252C211.847 162.99 197.134 187.751 198.432 189.526C230.353 233.235 274.307 266.307 283.731 333.345C283.731 333.345 289.974 374.311 285.359 371.851C280.733 369.379 120.39 379.991 120.39 379.991C120.39 379.991 94.7477 350.786 76.0941 297.971C75.0537 295.021 121.994 293.589 121.002 290.493C119.815 286.796 70.7086 281.386 69.607 277.482C62.4344 251.937 57.3549 222.023 57.0856 188.204C57.0611 184.471 122.618 194.985 122.618 194.985C122.618 194.985 57.5017 167.274 57.82 162.378C59.9619 128.792 66.9754 91.8395 81.088 51.9253Z" fill="#C9EED8"/>
<path d="M81.088 51.9253C81.088 51.9253 102.434 62.011 131.382 83.6143C136.278 87.2618 132.104 169.024 132.104 169.024C132.104 169.024 147.012 93.8224 149.803 96.2337C169.019 112.843 190.439 134.63 210.537 161.252C211.883 163.039 202.814 179.024 204.148 180.848C236.02 224.532 274.319 266.392 283.731 333.332C283.731 333.332 289.974 374.299 285.359 371.839C280.733 369.366 182.581 311.056 182.581 311.056L81.088 51.9253Z" fill="#DFF3E7"/>
<path d="M134.515 275.597C138.211 277.005 141.651 278.951 145.188 280.701C145.115 280.383 145.029 280.064 144.956 279.758C144.845 279.318 144.821 278.877 144.87 278.473C141.639 277.568 138.15 276.601 134.515 275.597Z" fill="#FFE2CF"/>
<path d="M81.088 51.9253C81.088 51.9253 157.563 263.724 165.727 284.067C165.58 284.079 163.707 283.614 160.598 282.769C160.794 283.075 160.965 283.406 161.088 283.81C161.431 284.948 161.614 286.086 161.675 287.225C161.7 287.359 161.7 287.494 161.724 287.616C165.274 288.657 167.465 289.208 167.759 289.085C187.599 338.118 191.443 334.728 199.191 337.127L81.088 51.9253Z" fill="#FFE2CF"/>
<path d="M80.3416 175.928C81.1004 175.928 135.568 199.355 135.568 199.355L138.383 205.071L80.3416 175.928Z" fill="#FFE2CF"/>
<path d="M141.406 125.034L130.06 178.217L131.002 184.226L141.406 125.034Z" fill="#FFE2CF"/>
<path d="M458.027 387.017H97.908V176.588C97.908 167.266 105.79 159.701 115.529 159.701H440.418C450.145 159.701 458.039 167.254 458.039 176.588V387.017H458.027Z" fill="#92D3FC"/>
<rect x="102.165" y="163.106" width="350.766" height="227.317" fill="#92D3FC"/>
<path d="M344.124 333.976C345.86 335.712 347.596 337.447 349.331 339.183C349.874 339.726 350.693 340.063 351.465 340.063C352.2 340.063 353.092 339.738 353.598 339.183C354.129 338.605 354.514 337.857 354.478 337.05C354.442 336.254 354.177 335.495 353.598 334.916C351.863 333.18 350.127 331.445 348.391 329.709C347.849 329.167 347.029 328.829 346.258 328.829C345.522 328.829 344.63 329.155 344.124 329.709C343.594 330.288 343.208 331.035 343.244 331.842C343.268 332.65 343.546 333.397 344.124 333.976Z" fill="#FAFAFA"/>
<path d="M363.024 255.496C363.024 255.664 360.408 255.809 357.19 255.809C353.972 255.809 351.356 255.664 351.356 255.496C351.356 255.327 353.972 255.182 357.19 255.182C360.408 255.182 363.024 255.327 363.024 255.496Z" fill="#455A64"/>
<path d="M403.765 121.17C401.692 114.915 405.428 92.483 400.523 92.4468C394.255 92.3986 396.063 117.795 396.051 120.074C396.039 122.279 392.748 122.316 392.881 120.266C393.049 117.325 394.038 88.3245 387.77 88.8428C384.298 89.12 384.732 95.4602 384.732 95.4602C384.732 95.4602 386.673 124.461 383.708 124.594C380.694 124.738 379.682 107.815 379.441 101.873C379.212 96.1714 376.801 93.8932 374.186 95.8098C371.389 97.8589 372.088 114.903 372.233 120.616C372.378 126.329 373.053 142.023 366.435 134.393C359.818 126.763 351.923 123.328 349.174 123.87C346.426 124.413 346.282 128.451 349.114 129.765C351.404 130.825 354.707 133.766 357.094 136.081C359.058 137.985 360.469 140.336 361.963 142.638C363.024 144.277 364.82 147.556 365.953 152.257C367.267 157.693 370.895 162.273 375.825 164.901L375.511 175.52L406.079 172.868L406.67 152.763C406.983 137.395 409.671 127.065 411.286 117.928C413.866 103.355 411.998 102.909 410.25 102.994C406.356 103.162 405.79 127.27 403.765 121.17Z" fill="#FFBE9D"/>
<path d="M403.765 140.89C403.777 141.035 402.078 141.011 399.57 141.939C397.087 142.831 393.833 144.868 391.639 148.291C391.049 149.207 390.603 150.171 390.229 151.111L390.048 151.582L389.674 151.268C387.143 149.147 384.515 147.845 382.587 147.11C380.658 146.362 379.429 146.097 379.453 146.001C379.465 145.928 380.731 146.037 382.744 146.676C384.745 147.315 387.493 148.556 390.12 150.726L389.566 150.882C389.94 149.894 390.41 148.869 391.024 147.917C392.169 146.133 393.628 144.711 395.099 143.638C396.581 142.578 398.088 141.89 399.402 141.469C400.703 141.035 401.824 140.926 402.584 140.854C403.343 140.83 403.765 140.842 403.765 140.89Z" fill="#EB996E"/>
<path d="M399.51 162.381C399.582 162.55 396.352 163.936 392.085 164.455C387.818 164.997 384.346 164.455 384.383 164.274C384.395 164.057 387.83 164.274 392 163.743C396.171 163.225 399.45 162.177 399.51 162.381Z" fill="#EB996E"/>
<path d="M317.498 163.298C317.498 163.298 333.421 171.434 341.81 183.15C350.187 194.866 375.487 231.195 375.487 231.195L371.92 176.062L410.997 171C410.997 171 422.376 226.531 425.028 245.732C427.511 263.704 426.474 281.386 408.924 291.029C388.216 302.408 364.7 287.039 356.877 281.205C347.162 273.961 329.226 262.149 329.226 262.149L317.498 163.298Z" fill="#EBEBEB"/>
<path d="M297.863 156.415L286.713 143.964L237.981 140.227L231.665 150.436L248.744 257.038L241.054 364.724H304.552L297.863 156.415Z" fill="#E8505B"/>
<g opacity="0.3">
<g opacity="0.3">
<path opacity="0.3" d="M243.995 339.111C245.671 337.327 248.419 334.856 250.866 334.808C268.404 334.422 286.327 332.662 303.877 332.276L304.552 364.712L296.006 360.723C295.524 357.034 294.909 352.635 291.546 351.056C289.642 350.164 287.412 350.513 285.351 350.923C279.011 352.177 272.719 353.816 266.27 354.214C259.821 354.612 253.071 353.671 247.659 350.152C245.803 348.946 244.08 347.379 243.212 345.342C242.332 343.305 242.476 340.726 243.995 339.111Z" fill="#5E5E5E"/>
</g>
</g>
<path d="M286.713 143.964L317.932 164.166L324.525 185.838L330.853 253.41L323.886 322.561L335.915 364.725H304.552L304.492 348.091L301.141 231.003L297.862 156.415L286.713 143.964Z" fill="#EBEBEB"/>
<path d="M303.528 247.142C303.552 247.154 303.72 246.853 304.046 246.274C304.383 245.647 304.853 244.792 305.432 243.707C306.011 242.586 306.577 241.127 307.3 239.488C307.65 238.656 307.927 237.74 308.277 236.776C308.614 235.812 308.988 234.799 309.265 233.702C311.893 225.024 313.641 212.5 313.267 198.675C313.231 197.602 313.195 196.541 313.122 195.493L313.11 195.312L312.941 195.239C311.278 194.54 309.651 193.853 308.048 193.178L308.12 193.685C309.795 192.335 311.435 191.021 313.002 189.755L313.098 189.671V189.55C313.327 184.343 312.062 179.654 310.868 175.58C309.639 171.494 308.289 167.974 307.108 165.069C305.926 162.177 304.902 159.911 304.166 158.368C303.805 157.596 303.504 157.006 303.299 156.62C303.094 156.222 302.973 156.029 302.961 156.029C302.949 156.041 303.033 156.246 303.202 156.656C303.395 157.114 303.66 157.705 303.974 158.44C304.649 160.007 305.625 162.285 306.758 165.19C307.891 168.095 309.193 171.627 310.374 175.701C311.519 179.763 312.737 184.44 312.495 189.49L312.604 189.285C311.025 190.539 309.398 191.852 307.71 193.19L307.324 193.504L307.783 193.697C309.374 194.372 311.013 195.059 312.676 195.758L312.495 195.505C312.568 196.541 312.604 197.602 312.64 198.663C313.002 212.416 311.338 224.903 308.831 233.558C308.566 234.655 308.204 235.667 307.891 236.631C307.566 237.596 307.3 238.512 306.963 239.343C306.276 240.995 305.745 242.453 305.203 243.586C304.661 244.683 304.239 245.551 303.913 246.19C303.648 246.817 303.504 247.142 303.528 247.142Z" fill="#828282"/>
<path d="M325.453 291.138C325.477 291.138 325.562 290.824 325.718 290.234C325.887 289.583 326.104 288.703 326.381 287.594C326.671 286.449 327.008 285.038 327.322 283.399C327.647 281.76 328.069 279.892 328.406 277.806C328.768 275.733 329.166 273.443 329.479 270.984C329.853 268.525 330.106 265.885 330.407 263.113C330.913 257.556 331.251 251.421 331.251 244.972C331.227 238.524 330.865 232.389 330.335 226.832C330.034 224.06 329.768 221.42 329.383 218.961C329.057 216.502 328.659 214.224 328.286 212.139C327.948 210.053 327.514 208.197 327.189 206.546C326.864 204.906 326.526 203.496 326.225 202.351C325.947 201.254 325.718 200.374 325.55 199.723C325.393 199.121 325.297 198.807 325.272 198.819C325.248 198.819 325.309 199.145 325.429 199.76C325.574 200.423 325.755 201.302 325.984 202.411C326.237 203.556 326.55 204.967 326.839 206.618C327.141 208.269 327.539 210.126 327.852 212.211C328.201 214.284 328.575 216.562 328.864 219.021C329.226 221.468 329.467 224.108 329.756 226.868C330.251 232.413 330.588 238.524 330.624 244.948C330.624 251.373 330.299 257.484 329.829 263.029C329.551 265.801 329.31 268.429 328.961 270.888C328.672 273.347 328.31 275.625 327.972 277.698C327.671 279.783 327.273 281.651 326.984 283.291C326.695 284.942 326.393 286.352 326.14 287.497C325.911 288.606 325.73 289.498 325.586 290.161C325.477 290.812 325.429 291.126 325.453 291.138Z" fill="#828282"/>
<path d="M317.896 347.693C317.835 347.729 318.305 348.826 319.258 350.502C320.21 352.177 321.668 354.419 323.537 356.709C325.405 358.987 327.321 360.868 328.78 362.133C330.238 363.399 331.227 364.074 331.275 364.014C331.335 363.941 330.443 363.146 329.069 361.82C327.695 360.482 325.863 358.589 324.007 356.335C322.162 354.081 320.656 351.9 319.619 350.297C318.571 348.669 317.968 347.645 317.896 347.693Z" fill="#828282"/>
<g opacity="0.3">
<path opacity="0.3" d="M302.31 291.113C299.008 289.39 294.97 290.294 291.498 291.632C288.027 292.982 284.568 294.766 280.843 294.729C275.793 294.681 268.621 292.837 265.969 288.534C263.329 284.231 260.641 277.65 259.568 272.72C255.543 254.181 254.627 237.933 250.601 219.395C248.407 209.306 245.622 197.638 241.886 188.019C238.258 178.702 234.907 169.059 232.062 159.477C232.556 181.221 233.063 203.038 236.426 224.518C238.583 238.331 241.922 251.951 243.73 265.825C245.285 277.698 245.719 289.691 246.153 301.66L257.447 315.474L288.581 316.112L304.842 295.139L302.31 291.113Z" fill="#5E5E5E"/>
</g>
<path d="M189.465 162.369C177.532 166.998 168.673 177.243 165.84 189.731C156.703 230.038 141.058 283.64 140.805 300.937C140.491 322.959 150.122 338.038 162.694 340.822C172.638 343.016 262.763 338.086 262.763 338.086L267.018 300.479L193.985 293.765L203.977 237.921L194.082 160.573L189.465 162.369Z" fill="#EBEBEB"/>
<path d="M194.106 160.573L214.283 152.329L237.354 139.865L237.571 140.528C234.967 144.988 232.195 153.221 233.171 158.295L250.866 250.662L246.852 318.138L241.054 364.724H182.92L204.002 315.112L193.623 221.926L194.106 160.573Z" fill="#EBEBEB"/>
<path d="M204.592 232.28C204.568 232.28 204.52 232.497 204.435 232.895C204.339 233.365 204.23 233.955 204.086 234.679C203.784 236.318 203.375 238.56 202.88 241.272C201.892 246.925 200.554 254.591 199.084 263.065C197.673 271.551 196.396 279.229 195.443 284.894C195.021 287.63 194.66 289.872 194.407 291.523C194.31 292.258 194.226 292.849 194.154 293.331C194.105 293.741 194.081 293.97 194.105 293.97C194.13 293.97 194.178 293.765 194.274 293.355C194.371 292.885 194.491 292.295 194.636 291.571C194.937 289.932 195.359 287.702 195.865 284.978C196.878 279.409 198.228 271.695 199.674 263.185C201.121 254.663 202.41 246.949 203.302 241.356C203.724 238.62 204.062 236.378 204.327 234.727C204.423 233.992 204.508 233.401 204.568 232.919C204.592 232.497 204.604 232.28 204.592 232.28Z" fill="#828282"/>
<path d="M226.289 146.375C226.276 146.375 226.252 146.447 226.204 146.604C226.156 146.784 226.096 147.013 226.023 147.279C225.879 147.881 225.614 148.749 225.372 149.906C224.854 152.208 224.252 155.583 223.83 159.85C223.408 164.105 223.227 169.252 223.444 175.014C223.637 180.775 224.252 187.152 225.119 193.914L225.143 194.131L225.36 194.167C227.458 194.553 229.688 194.974 231.954 195.396L231.725 194.986C231.351 195.999 230.953 197.084 230.664 198.217C228.518 206.052 229.459 213.971 231.411 220.6C233.4 227.29 236.438 232.835 239.162 237.294C241.91 241.766 244.405 245.202 246.117 247.576C246.96 248.721 247.635 249.637 248.118 250.288C248.334 250.565 248.515 250.794 248.648 250.987C248.768 251.144 248.841 251.216 248.841 251.216C248.853 251.216 248.805 251.12 248.696 250.951C248.564 250.758 248.407 250.517 248.214 250.216C247.756 249.541 247.117 248.613 246.309 247.431C244.658 245.021 242.223 241.549 239.523 237.065C236.86 232.594 233.882 227.061 231.942 220.432C230.037 213.862 229.133 206.04 231.243 198.361C231.532 197.253 231.918 196.192 232.291 195.191L232.412 194.854L232.062 194.794C229.796 194.372 227.566 193.962 225.469 193.576L225.71 193.829C224.83 187.091 224.191 180.727 223.962 174.99C223.709 169.252 223.842 164.129 224.215 159.887C224.577 155.644 225.119 152.257 225.577 149.954C225.782 148.797 226.011 147.917 226.12 147.315C226.168 147.037 226.216 146.808 226.252 146.628C226.289 146.459 226.289 146.375 226.289 146.375Z" fill="#828282"/>
<path d="M226.288 241.103V226.374C226.288 226.374 226.095 222.734 229.157 223.505C232.219 224.277 231.64 230.014 231.64 230.014C231.64 230.014 232.219 252.398 230.869 252.205C229.531 252.012 229.012 250.288 229.012 250.288V241.682L226.288 241.103Z" fill="#E8505B"/>
<path d="M213.548 242.02C213.548 242.188 217.08 242.321 221.443 242.321C225.806 242.321 229.338 242.188 229.338 242.02C229.338 241.851 225.806 241.718 221.443 241.718C217.08 241.718 213.548 241.851 213.548 242.02Z" fill="#828282"/>
<path d="M184.391 171.12C184.379 171.168 184.969 171.361 186.042 171.735C187.103 172.121 188.633 172.711 190.417 173.627C193.985 175.447 198.65 178.738 202.266 183.716C203.182 184.946 203.953 186.235 204.592 187.513C205.183 188.827 205.665 190.129 205.991 191.418C206.69 193.986 206.991 196.372 207.16 198.385C207.328 200.398 207.365 202.038 207.377 203.159C207.389 204.292 207.377 204.918 207.413 204.918C207.449 204.918 207.545 204.304 207.606 203.159C207.666 202.026 207.702 200.374 207.582 198.349C207.461 196.324 207.196 193.889 206.521 191.274C206.195 189.96 205.725 188.61 205.123 187.26C204.472 185.922 203.676 184.62 202.748 183.367C199.06 178.292 194.274 174.989 190.61 173.254C188.766 172.374 187.199 171.843 186.114 171.518C185.017 171.205 184.403 171.084 184.391 171.12Z" fill="#828282"/>
<path d="M262.775 338.086C262.763 338.086 262.775 337.845 262.811 337.375C262.859 336.869 262.919 336.182 263.004 335.326C263.196 333.482 263.462 330.878 263.799 327.599C264.522 320.922 265.547 311.532 266.764 300.443L267.017 300.756C258.821 300.057 249.612 299.286 239.897 298.454C222.009 296.875 205.834 295.453 194.057 294.416C188.199 293.837 183.535 295.573 180.666 297.056C179.219 297.815 178.171 298.55 177.472 299.057C177.146 299.298 176.893 299.503 176.688 299.659C176.507 299.792 176.411 299.852 176.411 299.852C176.411 299.852 177.664 298.49 180.557 296.851C183.414 295.284 188.127 293.452 194.105 293.982C205.882 294.97 222.07 296.333 239.969 297.839C249.684 298.683 258.893 299.478 267.078 300.19L267.367 300.214L267.331 300.503C266.029 311.592 264.932 320.97 264.149 327.636C263.739 330.902 263.425 333.506 263.196 335.338C263.076 336.194 262.992 336.869 262.919 337.375C262.835 337.857 262.787 338.086 262.775 338.086Z" fill="#828282"/>
<path d="M243.164 339.087C243.115 339.087 243.043 338.52 242.947 337.496C242.838 336.471 242.742 334.976 242.669 333.144C242.525 329.468 242.549 324.357 243.043 318.752C243.549 313.147 244.405 308.109 245.201 304.517C245.598 302.721 245.948 301.275 246.237 300.274C246.514 299.286 246.683 298.743 246.731 298.743C246.768 298.755 246.683 299.322 246.478 300.322C246.261 301.455 245.972 302.89 245.647 304.589C244.972 308.193 244.176 313.208 243.682 318.788C243.188 324.369 243.091 329.444 243.127 333.12C243.152 334.856 243.176 336.314 243.2 337.471C243.212 338.52 243.212 339.087 243.164 339.087Z" fill="#828282"/>
<path d="M253.505 327.298C253.493 327.262 253.807 327.142 254.397 327.142C254.988 327.142 255.868 327.334 256.736 327.973C257.592 328.588 258.435 329.805 258.327 331.3C258.254 332.734 257.363 334.338 255.747 334.988C254.108 335.591 252.372 335.001 251.372 333.952C250.311 332.891 250.191 331.384 250.504 330.372C250.805 329.323 251.42 328.648 251.89 328.311C252.372 327.961 252.71 327.901 252.722 327.937C252.746 327.985 252.457 328.13 252.047 328.504C251.649 328.877 251.143 329.54 250.926 330.492C250.709 331.421 250.854 332.674 251.782 333.554C252.65 334.422 254.18 334.916 255.518 334.41C256.856 333.88 257.664 332.505 257.748 331.276C257.869 330.01 257.194 328.938 256.459 328.335C255.711 327.708 254.916 327.467 254.373 327.395C253.831 327.31 253.505 327.347 253.505 327.298Z" fill="#828282"/>
<path d="M237.607 139.552C237.607 139.552 237.486 139.637 237.221 139.793C236.944 139.95 236.57 140.167 236.064 140.456C235.027 141.035 233.509 141.879 231.544 142.987C227.554 145.193 221.744 148.412 214.355 152.498H214.343H214.331C206.34 155.849 196.577 159.935 185.379 164.624C179.726 166.781 174.518 171.012 170.806 176.665C168.914 179.474 167.395 182.632 166.202 185.983C165.008 189.321 164.128 192.901 163.694 196.566V196.59V196.602C158.343 219.503 152.256 245.792 146.373 273.72C145.108 279.723 143.915 285.677 142.794 291.548C142.504 293.018 142.251 294.477 141.986 295.935C141.733 297.393 141.444 298.852 141.263 300.298C140.865 303.191 140.684 306.108 140.817 308.977C141.07 314.714 142.323 320.331 144.65 325.358C145.807 327.865 147.241 330.215 148.965 332.289C150.713 334.338 152.762 336.085 155.004 337.447C159.512 340.196 164.731 341.317 169.733 341.064C174.772 340.967 179.665 340.859 184.39 340.762C193.852 340.533 202.664 340.256 210.703 339.979C226.771 339.388 239.776 338.918 248.792 338.593C253.276 338.424 256.76 338.291 259.146 338.195C260.316 338.159 261.22 338.122 261.834 338.11C262.437 338.098 262.75 338.098 262.75 338.098C262.75 338.098 262.437 338.135 261.834 338.171C261.208 338.207 260.316 338.255 259.146 338.327C256.76 338.448 253.276 338.617 248.792 338.834C239.801 339.255 226.795 339.822 210.703 340.425C202.664 340.726 193.852 341.027 184.39 341.28C179.653 341.389 174.772 341.497 169.721 341.606C164.671 341.883 159.295 340.75 154.69 337.942C152.388 336.555 150.279 334.772 148.495 332.662C146.723 330.541 145.277 328.142 144.095 325.599C141.733 320.5 140.455 314.811 140.19 309.001C140.045 306.084 140.238 303.143 140.636 300.214C140.817 298.744 141.106 297.297 141.359 295.827C141.624 294.368 141.865 292.898 142.167 291.427C143.276 285.545 144.481 279.602 145.747 273.588C151.629 245.648 157.74 219.359 163.128 196.457L163.116 196.493C163.562 192.745 164.454 189.165 165.671 185.778C166.877 182.391 168.419 179.208 170.348 176.364C174.121 170.638 179.448 166.347 185.174 164.178C196.396 159.525 206.183 155.487 214.187 152.172L214.175 152.184C221.6 148.158 227.434 144.988 231.435 142.807C233.424 141.734 234.943 140.914 235.992 140.36C236.498 140.095 236.884 139.89 237.173 139.745C237.474 139.613 237.607 139.552 237.607 139.552Z" fill="#828282"/>
<path d="M338.748 236.402H311.194V244.997H338.748V236.402Z" fill="#828282"/>
<path d="M440.649 252.204L348.981 349.983L259.568 350.537L257.447 346.475L345.582 250.987L440.649 252.204Z" fill="#111111"/>
<path d="M354.008 250.987C354.008 250.987 359.962 250.951 361.722 253.06C363.795 255.543 367.737 261.136 359.106 275.371C355.659 281.061 338.748 300.72 331.793 320.777C325.296 339.52 328.261 345.728 328.261 345.728L392.772 343.715L394.026 341.389C394.026 341.389 422.074 265.403 414.637 250.987C411.226 244.345 353.55 248.552 354.008 250.987Z" fill="#EBEBEB"/>
<path d="M403.488 341.739L334.084 342.317C333.252 324.731 339.351 311.979 348.428 296.9C351.899 291.126 356.648 286.184 360.108 280.398C363.736 274.335 365.881 267.392 366.315 260.329C366.484 257.509 366.315 254.459 364.58 252.229C362.844 249.999 356.66 249.879 353.996 250.963C353.996 250.963 358.022 247.709 364.206 247.191C369.811 246.721 415.687 247.034 424.22 247.106C425.221 247.118 429.416 247.637 430.308 248.095C436.527 251.325 437.805 259.787 436.925 265.886C436.093 271.671 432.513 277.12 428.017 283.207C426.728 284.955 425.522 286.775 424.437 288.655C419.7 296.863 406.622 319.886 404.272 327.829C402.355 334.422 403.488 341.739 403.488 341.739Z" fill="#FAFAFA"/>
<path d="M403.488 341.594C397.919 341.642 392.35 341.69 386.769 341.738C376.126 341.823 365.495 341.919 354.852 342.003C350.392 342.04 345.92 342.076 341.46 342.112C339.965 342.124 338.471 342.136 336.976 342.148C336.241 342.16 335.192 342.353 334.469 342.172C334.409 342.16 334.131 342.22 334.095 342.172C334.083 342.16 334.192 340.882 334.192 340.738C334.18 340.135 334.168 339.532 334.18 338.918C334.18 337.736 334.216 336.555 334.288 335.374C334.565 330.854 335.361 326.382 336.627 322.043C339.194 313.292 343.63 305.216 348.294 297.429C350.862 293.15 354.044 289.341 356.985 285.328C359.781 281.519 362.168 277.481 363.807 273.033C365.41 268.682 366.399 264.029 366.531 259.388C366.616 256.399 366.182 252.301 363.036 250.963C361.626 250.36 360.035 250.179 358.516 250.167C357.479 250.155 355.105 250.047 354.237 250.746C353.984 250.951 354.116 251.011 354.297 250.963C354.418 250.927 354.61 250.746 354.707 250.674C355.177 250.36 355.671 250.059 356.165 249.794C357.841 248.878 359.661 248.203 361.529 247.781C365.266 246.937 369.316 247.19 373.125 247.154C385.022 247.046 396.918 247.118 408.815 247.178C413.396 247.202 417.964 247.226 422.544 247.262C424.714 247.275 426.847 247.431 428.981 247.877C432.621 248.637 434.984 252.289 436.056 255.604C437.201 259.147 437.37 263.125 436.671 266.777C435.755 271.49 433.163 275.721 430.463 279.614C428.029 283.134 425.534 286.533 423.4 290.257C421.918 292.837 420.447 295.428 419.001 298.02C415.517 304.252 412.082 310.52 408.912 316.908C406.176 322.404 403.536 327.828 403.114 334.048C402.945 336.603 402.981 339.243 403.367 341.786C403.391 341.979 403.693 341.895 403.656 341.702C402.692 335.362 403.693 329.07 406.248 323.248C408.972 317.04 412.202 311.05 415.445 305.095C418.398 299.671 421.411 294.283 424.509 288.944C429.005 281.169 436.237 274.383 437.238 265.029C437.864 259.183 436.514 250.625 430.367 247.95C428.438 247.106 425.823 246.985 423.726 246.973C422.05 246.961 420.387 246.949 418.711 246.937C407.031 246.865 395.339 246.804 383.66 246.816C378.621 246.816 373.583 246.829 368.544 246.913C363.964 246.997 359.601 247.443 355.527 249.806C354.972 250.131 354.43 250.469 353.923 250.866C353.803 250.963 353.935 251.168 354.068 251.12C356.563 250.167 359.806 250.179 362.325 251.011C365.977 252.204 366.375 256.556 366.218 259.858C365.869 267.766 363.205 275.516 358.865 282.121C356.72 285.388 354.237 288.413 351.91 291.547C349.693 294.524 347.776 297.67 345.92 300.889C342.521 306.771 339.375 312.846 337.181 319.295C334.65 326.732 333.601 334.482 333.939 342.317C333.939 342.401 333.999 342.473 334.083 342.461C341.906 342.401 349.717 342.329 357.539 342.269C370.003 342.16 382.454 342.064 394.918 341.955C397.774 341.931 400.631 341.907 403.488 341.883C403.693 341.895 403.693 341.594 403.488 341.594Z" fill="#828282"/>
<path d="M399.39 327.25C399.39 327.418 387.155 327.563 372.052 327.563C356.949 327.563 344.715 327.418 344.715 327.25C344.715 327.081 356.949 326.936 372.052 326.936C387.155 326.936 399.39 327.081 399.39 327.25Z" fill="#828282"/>
<path d="M400.92 318.113C400.92 318.282 388.686 318.427 373.583 318.427C358.48 318.427 346.246 318.282 346.246 318.113C346.246 317.944 358.48 317.8 373.583 317.8C388.686 317.8 400.92 317.932 400.92 318.113Z" fill="#828282"/>
<path d="M408.273 308.302C408.273 308.47 396.039 308.615 380.936 308.615C365.832 308.615 353.598 308.47 353.598 308.302C353.598 308.133 365.832 307.988 380.936 307.988C396.027 307.988 408.273 308.121 408.273 308.302Z" fill="#828282"/>
<path d="M412.793 299.334C412.793 299.503 400.559 299.647 385.456 299.647C370.353 299.647 358.118 299.503 358.118 299.334C358.118 299.165 370.353 299.021 385.456 299.021C400.559 299.021 412.793 299.165 412.793 299.334Z" fill="#828282"/>
<path d="M415.807 291.137C415.807 291.306 403.572 291.451 388.469 291.451C373.366 291.451 361.132 291.306 361.132 291.137C361.132 290.969 373.366 290.824 388.469 290.824C403.572 290.824 415.807 290.957 415.807 291.137Z" fill="#828282"/>
<path d="M423.183 280.361C423.183 280.53 410.949 280.675 395.846 280.675C380.743 280.675 368.509 280.53 368.509 280.361C368.509 280.193 380.743 280.048 395.846 280.048C410.949 280.048 423.183 280.193 423.183 280.361Z" fill="#828282"/>
<path d="M430.222 270.056C430.222 270.224 417.988 270.369 402.885 270.369C387.782 270.369 375.548 270.224 375.548 270.056C375.548 269.887 387.782 269.742 402.885 269.742C417.988 269.742 430.222 269.887 430.222 270.056Z" fill="#828282"/>
<path d="M429.716 260.256C429.716 260.425 417.482 260.569 402.379 260.569C387.276 260.569 375.041 260.425 375.041 260.256C375.041 260.087 387.276 259.943 402.379 259.943C417.482 259.943 429.716 260.075 429.716 260.256Z" fill="#828282"/>
<path d="M345.582 250.987C345.595 250.975 345.715 251.071 345.968 251.252C346.245 251.469 346.595 251.746 347.041 252.108C348.017 252.903 349.403 254.036 351.199 255.495L351.308 255.591L351.212 255.7C343.75 263.86 327.575 281.302 308.807 301.419C295.85 315.606 283.386 327.768 274.358 336.531C269.838 340.906 266.15 344.426 263.594 346.849C262.329 348.03 261.34 348.958 260.629 349.621C260.304 349.91 260.051 350.151 259.846 350.332C259.665 350.489 259.568 350.561 259.568 350.561C259.568 350.561 259.641 350.465 259.809 350.284C260.002 350.091 260.243 349.838 260.545 349.537C261.232 348.85 262.196 347.897 263.426 346.68C265.969 344.185 269.585 340.617 274.045 336.218C282.988 327.37 295.392 315.184 308.349 300.997C327.116 280.88 343.389 263.535 351.007 255.519L351.019 255.712C349.259 254.205 347.909 253.048 346.945 252.228C346.511 251.843 346.173 251.553 345.908 251.324C345.679 251.107 345.57 250.987 345.582 250.987Z" fill="#55646B"/>
<path d="M266.945 304.794H280.023C280.023 304.794 288.871 297.08 290.884 296.489C295.09 295.236 305.963 293.91 305.963 293.91L298.538 301.949C298.538 301.949 298.827 301.636 298.538 301.949C296.826 303.806 293.656 305.481 295.536 305.481C297.417 305.481 309.145 305.481 309.145 305.481C309.145 305.481 323.079 298.803 325.14 300.021C326.875 301.045 327.478 302.902 325.706 305.481C323.922 308.061 311.724 314.16 310.314 314.63L306.324 315.799L310.073 316.968L327.828 310.761C328.985 310.556 330.576 310.363 331.094 311.026C331.805 311.942 332.239 313.171 330.998 314.461C328.804 316.751 322.97 320.777 322.97 320.777C322.97 320.777 325.803 324.936 323.452 327.057C321.102 329.166 314.304 335.506 314.304 335.506C314.304 335.506 313.604 339.026 311.483 340.665C309.374 342.305 286.146 342.305 284.495 342.305C282.856 342.305 273.466 336.905 273.466 336.905L263.281 336.157L266.945 304.794Z" fill="#FFBE9D"/>
<path d="M307.421 327.503C307.409 327.563 308.361 327.816 309.964 327.84C310.76 327.84 311.736 327.732 312.737 327.358C313.737 326.985 314.75 326.406 315.762 325.743C317.775 324.429 319.571 323.224 320.861 322.332C322.15 321.428 322.922 320.849 322.886 320.789C322.85 320.729 321.994 321.199 320.656 322.019C319.318 322.838 317.474 323.995 315.473 325.297C314.472 325.948 313.508 326.527 312.568 326.9C311.628 327.286 310.724 327.431 309.964 327.467C308.409 327.527 307.421 327.419 307.421 327.503Z" fill="#EB996E"/>
<path d="M306.348 336.193C306.3 336.23 306.854 336.868 308.108 337.182C309.325 337.507 311.23 337.375 312.893 336.374C314.569 335.446 315.882 334.325 316.786 333.481C317.678 332.626 318.161 332.023 318.112 331.975C317.992 331.83 315.858 334.06 312.64 335.892C311.049 336.844 309.361 337.001 308.192 336.796C307.023 336.615 306.408 336.121 306.348 336.193Z" fill="#EB996E"/>
<path d="M299.779 316.968C299.791 317.113 301.454 317.101 303.455 316.679C305.456 316.269 306.999 315.618 306.951 315.485C306.903 315.341 305.324 315.739 303.347 316.148C301.37 316.558 299.755 316.811 299.779 316.968Z" fill="#EB996E"/>
<path d="M210.968 55.9249C207.545 49.8379 201.615 45.2093 194.889 43.3651C188.151 41.5209 180.69 42.4973 174.651 45.9928C169.444 49.0062 165.129 54.4544 165.478 60.4571C165.804 66.1222 170.023 70.6905 174 74.7285C167.672 77.3682 164.502 85.3959 166.563 91.9289C168.636 98.4619 175.169 103.078 181.992 103.705C188.814 104.332 195.697 101.367 200.627 96.5936C205.556 91.8204 208.666 85.42 210.366 78.7664" fill="#111111"/>
<path d="M189.32 70.5338C189.32 70.5338 188.163 71.1365 185.849 71.4137C183.571 71.703 180.039 71.4258 176.351 69.4369C174.531 68.4365 172.65 67.0383 171.144 65.0856C169.613 63.157 168.48 60.6981 167.986 57.974C166.985 52.574 168.468 46.0048 172.952 41.3642C177.436 36.7356 183.764 34.8432 189.224 35.0843C194.744 35.3133 199.542 37.5432 202.459 40.5445C205.436 43.5459 206.304 47.0896 206.364 49.3677C206.388 50.5369 206.256 51.4289 206.099 52.0195C206.039 52.3209 205.954 52.5378 205.906 52.6825C205.858 52.8271 205.822 52.8994 205.822 52.8994C205.737 52.8874 206.232 51.6579 206.123 49.3677C205.99 47.1378 205.074 43.7146 202.145 40.8459C199.277 37.9771 194.588 35.8437 189.2 35.6508C183.872 35.4459 177.725 37.3021 173.398 41.7861C169.07 46.2579 167.6 52.6222 168.54 57.8535C168.998 60.4932 170.083 62.8677 171.541 64.7481C172.976 66.6525 174.796 68.0266 176.544 69.0271C180.111 71.0159 183.559 71.3534 185.801 71.1485C188.103 70.9677 189.296 70.4494 189.32 70.5338Z" fill="#828282"/>
<path d="M197.107 75.7888C197.131 75.825 196.842 76.0179 196.287 76.3312C195.745 76.6567 194.913 77.0303 193.84 77.4161C192.78 77.8138 191.466 78.1513 189.983 78.3803C188.501 78.5853 186.837 78.6817 185.114 78.5611C183.378 78.4165 181.763 78.079 180.316 77.6571C178.882 77.1991 177.64 76.6687 176.64 76.1263C175.652 75.5839 174.88 75.0777 174.386 74.6799C173.892 74.2942 173.627 74.0531 173.651 74.029C173.723 73.9326 174.832 74.7763 176.833 75.7406C177.833 76.2348 179.063 76.7049 180.461 77.1147C181.871 77.5004 183.45 77.8138 185.138 77.9464C186.825 78.067 188.428 77.9946 189.887 77.8259C191.333 77.621 192.623 77.3437 193.684 77.0062C195.817 76.3433 197.047 75.6803 197.107 75.7888Z" fill="#55646B"/>
<path d="M165.454 61.4696C165.418 61.4575 165.551 60.9271 165.936 60.0231C166.346 59.1432 167.033 57.8053 168.492 56.7205C169.938 55.6236 172.047 55.0089 174.362 54.7437C176.7 54.4906 179.268 54.6834 181.907 55.1053C187.223 55.949 191.767 57.8535 194.817 59.5651C196.347 60.4209 197.529 61.2164 198.324 61.7829C199.108 62.3736 199.518 62.7231 199.493 62.7472C199.469 62.7834 199.011 62.5062 198.18 61.9758C197.348 61.4696 196.143 60.7343 194.6 59.9388C191.526 58.3477 187.03 56.5397 181.799 55.708C179.195 55.2981 176.664 55.0932 174.398 55.3102C172.144 55.5272 170.119 56.0816 168.733 57.07C167.335 58.0463 166.599 59.2879 166.141 60.1196C165.707 60.9754 165.502 61.4816 165.454 61.4696Z" fill="#55646B"/>
<path d="M202.266 85.6488C202.29 85.6609 202.217 85.7935 202.085 86.0587C201.952 86.3238 201.735 86.6854 201.434 87.1435C200.831 88.0595 199.843 89.3372 198.397 90.6872C196.95 92.0252 194.997 93.4113 192.587 94.46C190.176 95.4845 187.307 96.1475 184.27 96.1113C181.232 96.0872 178.364 95.4122 175.977 94.2912C173.59 93.1582 171.746 91.5792 170.517 90.0122C169.287 88.4332 168.709 86.8904 168.492 85.8055C168.383 85.2631 168.335 84.8292 168.347 84.5399C168.335 84.2506 168.347 84.0939 168.371 84.0939C168.443 84.0819 168.443 84.6966 168.745 85.7453C169.022 86.7819 169.637 88.2524 170.878 89.735C172.108 91.2055 173.916 92.7002 176.23 93.7609C178.544 94.8095 181.341 95.4604 184.282 95.4725C187.223 95.5086 190.019 94.8939 192.37 93.9176C194.732 92.9292 196.649 91.6153 198.107 90.3497C201.036 87.7823 202.157 85.5645 202.266 85.6488Z" fill="#55646B"/>
<path d="M204.568 91.9167C204.604 91.9408 204.146 92.5314 203.254 93.5198C202.362 94.5082 201.024 95.9064 199.264 97.5337C198.384 98.3413 197.396 99.1971 196.287 100.077C195.19 100.945 193.949 101.849 192.502 102.548C189.634 103.97 186.09 104.718 182.401 104.513C178.737 104.296 175.206 103.199 172.698 101.162C170.179 99.1488 168.552 96.6779 167.588 94.4721C166.599 92.2663 166.322 90.2895 166.25 88.9636C166.214 88.2886 166.238 87.7703 166.286 87.4207C166.322 87.0712 166.346 86.8904 166.37 86.8904C166.394 86.8904 166.406 87.0832 166.418 87.4328C166.406 87.7823 166.431 88.3006 166.503 88.9515C166.648 90.2533 166.985 92.1698 167.997 94.3033C168.986 96.4247 170.613 98.8113 173.048 100.716C175.471 102.644 178.87 103.693 182.438 103.898C186.018 104.091 189.465 103.38 192.249 102.042C193.647 101.379 194.853 100.523 195.962 99.6792C197.071 98.8355 198.071 98.0037 198.963 97.2203C200.747 95.6533 202.121 94.3033 203.073 93.3752C204.014 92.423 204.532 91.8926 204.568 91.9167Z" fill="#55646B"/>
<path d="M214.705 55.2013L216.465 56.5875C215.754 53.5861 212.403 51.6937 209.341 52.0192C206.28 52.3446 203.628 54.4781 202.001 57.0937C200.373 59.7093 199.626 62.7709 199.048 65.7964C198.095 70.8468 197.637 76.2468 199.65 80.9839C201.663 85.7209 206.858 89.4334 211.848 88.1919C216.815 86.9504 219.599 81.5504 220.334 76.4879C221.431 69.0267 219.346 61.1558 214.705 55.2013Z" fill="#E8505B"/>
<path d="M207.799 78.1273C207.883 78.2599 205.81 79.3206 203.025 79.1639C201.651 79.1036 200.446 78.7661 199.614 78.4166C198.722 78.067 198.469 77.4041 198.578 77.392C198.65 77.3559 198.951 77.7898 199.771 78.0068C200.591 78.2358 201.76 78.4889 203.062 78.5492C205.677 78.6818 207.738 77.9465 207.799 78.1273Z" fill="#828282"/>
<path d="M210.245 69.1835C210.245 69.3523 207.654 69.4125 204.46 69.3161C201.265 69.2197 198.686 68.9907 198.698 68.8219C198.698 68.6532 201.29 68.5929 204.484 68.6893C207.666 68.7978 210.245 69.0148 210.245 69.1835Z" fill="#828282"/>
<path d="M208.317 59.6248C208.292 59.8297 206.533 59.5766 204.435 59.3837C203.387 59.3114 202.446 59.3838 201.784 59.5284C201.121 59.673 200.711 59.8418 200.663 59.7574C200.626 59.6972 200.964 59.3717 201.651 59.1065C202.338 58.8293 203.363 58.6726 204.471 58.757C206.677 58.9619 208.329 59.4922 208.317 59.6248Z" fill="#828282"/>
<path d="M220.563 35.4456C220.418 30.3951 225.095 26.4898 229.796 24.6456C234.497 22.8014 239.728 22.1023 243.911 19.2817C247.623 16.7867 250.118 12.8934 253.252 9.69917C260.955 1.88847 272.984 -1.35393 283.579 1.53892C294.162 4.43177 302.889 13.3273 305.553 23.9706C307.361 31.1665 306.131 39.6643 300.454 44.4496C293.873 49.9942 284.121 48.7647 275.684 47.0411C267.259 45.3174 257.712 43.6179 250.673 48.5598C246.43 51.5491 243.995 56.4067 241.404 60.9027C238.812 65.3986 235.558 69.9911 230.64 71.6785C225.734 73.366 219.068 70.4491 218.876 65.266" fill="#111111"/>
<path d="M220.901 38.2178C221.455 42.4486 218.394 46.2455 215.344 49.2348C212.294 52.2241 208.847 55.3942 208.317 59.625C207.69 64.5669 211.294 69.4486 210.257 74.3182C209.594 77.416 207.184 79.8026 205.725 82.6111C203.676 86.5526 203.568 91.3258 204.821 95.5928C206.075 99.8597 208.076 109.37 211.041 112.685C219.237 121.845 232.279 129.753 244.26 132.501C256.242 135.249 268.681 135.273 280.951 134.514C290.992 133.899 302.539 134.357 310.917 120.544C315.256 113.384 317.401 103.874 319.704 95.8338C321.692 88.903 323.404 81.4901 321.343 74.5955C320.138 70.5696 317.727 67.0017 316.534 62.9759C315.051 57.9495 315.593 52.5616 315.003 47.3544C313.713 36.0723 306.71 25.5978 296.79 20.0893C286.87 14.5808 274.274 14.1831 264.016 19.0527" fill="#111111"/>
<path d="M237.98 153.209C237.98 153.209 238.029 153.523 238.041 153.656C238.029 153.583 238.017 153.462 237.98 153.209Z" fill="#FFBE9D"/>
<path d="M310.193 55.5752C309.253 41.1592 299.658 23.5007 285.303 25.0556L240.475 36.4945C236.112 36.9646 232.833 40.7011 232.93 45.0766L237.86 150.822C237.944 152.618 238.366 154.39 239.101 156.03C242.428 163.37 253.493 182.017 277.516 174.459C283.398 172.615 286.074 166.179 287.243 159.573C287.255 158.79 287.569 158.091 287.581 157.343C288.557 149.713 287.761 142.493 287.761 142.493C287.846 133.767 287.834 130.187 287.846 130.259C287.846 130.259 306.252 127.161 310.012 103.127C311.881 91.1814 311.23 71.5944 310.193 55.5752Z" fill="#FFBE9D"/>
<path d="M238.041 153.655C238.053 153.741 238.053 153.716 238.041 153.655V153.655Z" fill="#FFBE9D"/>
<path d="M302.973 71.1966C303.034 72.8239 301.708 74.2221 300.008 74.3064C298.309 74.4029 296.886 73.1614 296.826 71.5341C296.766 69.9069 298.092 68.5087 299.791 68.4123C301.479 68.3279 302.913 69.5694 302.973 71.1966Z" fill="#111111"/>
<path d="M305.962 65.7847C305.577 66.1825 303.238 64.4709 299.924 64.4829C296.609 64.4468 294.186 66.1584 293.825 65.7606C293.644 65.5798 294.042 64.8566 295.09 64.0852C296.127 63.3137 297.911 62.5664 299.972 62.5664C302.033 62.5785 303.781 63.3258 304.781 64.1093C305.806 64.8687 306.155 65.6039 305.962 65.7847Z" fill="#111111"/>
<path d="M270.103 71.1969C270.163 72.8241 268.838 74.2223 267.138 74.3067C265.438 74.4031 264.016 73.1616 263.956 71.5344C263.896 69.9071 265.221 68.5089 266.921 68.4125C268.621 68.3281 270.043 69.5696 270.103 71.1969Z" fill="#111111"/>
<path d="M273.37 66.4717C272.984 66.8695 270.646 65.1579 267.331 65.1699C264.016 65.1338 261.593 66.8454 261.232 66.4476C261.051 66.2668 261.437 65.5436 262.497 64.7722C263.534 64.0007 265.318 63.2534 267.379 63.2534C269.44 63.2655 271.188 64.0128 272.188 64.7963C273.213 65.5677 273.563 66.2909 273.37 66.4717Z" fill="#111111"/>
<path d="M285.459 91.0369C285.447 90.844 287.508 90.4824 290.847 90.0485C291.691 89.9641 292.498 89.7833 292.631 89.2168C292.824 88.602 292.474 87.698 292.065 86.7097C291.269 84.6605 290.425 82.515 289.545 80.273C286.05 71.1003 283.519 63.5548 283.88 63.4222C284.254 63.2896 287.388 70.6061 290.883 79.7789C291.727 82.0449 292.535 84.1904 293.294 86.2637C293.619 87.2279 294.174 88.3128 293.74 89.5905C293.511 90.2293 292.896 90.6873 292.354 90.832C291.811 91.0007 291.329 91.0128 290.919 91.0369C287.557 91.2056 285.471 91.2177 285.459 91.0369Z" fill="#111111"/>
<path d="M287.834 130.271C287.834 130.271 271.67 131.344 255.639 121.761C255.639 121.761 263.763 138.371 287.81 136.069L287.834 130.271Z" fill="#EB996E"/>
<path d="M286.898 102.493C285.159 101.547 282.896 101.633 281.102 102.697C279.86 103.432 278.82 104.671 278.512 106.094C278.204 107.517 278.726 109.107 279.913 109.799C281.243 110.573 283.075 110.061 284.324 108.992C285.573 107.923 286.386 106.417 287.128 104.929C287.338 104.516 287.543 104.093 287.577 103.641C287.61 103.189 287.445 102.708 287.058 102.526" fill="#EB996E"/>
<path d="M276.935 100.773C277.414 100.517 278.912 103.794 282.773 104.838C286.638 105.892 289.96 103.937 290.191 104.388C290.33 104.577 289.7 105.378 288.249 106.088C286.824 106.8 284.507 107.294 282.142 106.658C279.783 106.007 278.175 104.446 277.459 103.156C276.7 101.833 276.694 100.856 276.935 100.773Z" fill="#111111"/>
<path d="M274.852 60.6619C274.527 61.5659 271.212 61.144 267.331 61.6262C263.425 62.0239 260.291 63.169 259.773 62.3614C259.544 61.9757 260.087 61.132 261.352 60.2521C262.606 59.3722 264.607 58.5405 266.945 58.2753C269.283 58.0101 271.417 58.3838 272.839 58.9503C274.274 59.5289 274.985 60.228 274.852 60.6619Z" fill="#111111"/>
<path d="M304.721 56.1898C304.142 56.9492 301.852 56.1657 299.104 56.1416C296.356 56.009 294.029 56.6599 293.499 55.8764C293.258 55.4907 293.632 54.7434 294.644 54.0202C295.644 53.309 297.32 52.7184 299.2 52.7787C301.093 52.8389 302.72 53.5139 303.684 54.2853C304.661 55.0447 304.974 55.8162 304.721 56.1898Z" fill="#111111"/>
<path d="M223.709 115.529C230.314 116.867 237.51 114.83 242.452 110.238C247.394 105.646 249.938 98.6183 249.094 91.9286C248.346 86.0223 245.164 80.0197 247.213 74.4389C249.913 67.05 260.267 64.784 263.016 57.4193C264.607 53.1402 263.184 48.126 264.992 43.9313C266.692 39.9898 270.85 37.7117 274.888 36.2532C278.926 34.7947 283.266 33.7822 286.653 31.1425C290.052 28.5028 292.161 23.5247 289.979 19.8242C272.056 21.9698 254.385 26.2608 237.474 32.5769C233.557 34.0354 229.434 35.8072 227.12 39.2907C224.661 42.9791 224.782 47.7402 224.987 52.1639C225.999 73.7398 227 95.3156 228.012 116.879" fill="#111111"/>
<path d="M225.216 123.798C225.203 123.81 225.071 123.726 224.83 123.545C224.541 123.328 224.191 123.051 223.757 122.726C222.829 122.002 221.467 120.918 219.779 119.423C218.104 117.928 216.091 116.036 214.126 113.48C212.186 110.949 210.293 107.647 209.63 103.597C208.919 99.6551 209.437 94.689 212.728 90.9524C214.343 89.1203 216.428 87.7582 218.321 86.1792C220.249 84.6363 221.853 82.6716 222.684 80.2247C224.456 75.331 223.673 69.6538 224.36 63.856C225.119 58.0944 227.18 52.14 231.17 47.3065C233.159 44.9199 235.557 42.8467 238.294 41.4846C241.018 40.0503 243.971 39.4476 246.707 38.652C249.467 37.8927 251.986 36.7476 254.084 35.0119C256.193 33.3123 257.929 31.2391 259.436 29.1056C262.449 24.8146 264.691 20.2463 267.56 16.4373C268.994 14.5329 270.549 12.8092 272.297 11.411C274.044 10.0128 275.961 8.98824 277.914 8.34941C281.795 7.02352 285.881 7.4695 288.581 9.41012C291.245 11.4351 292.221 14.3641 292.366 16.6061C292.474 18.9204 291.703 20.644 290.919 21.5601C290.534 22.0302 290.196 22.3315 289.943 22.5003C289.702 22.6811 289.569 22.7655 289.557 22.7534C289.545 22.7414 289.654 22.6208 289.871 22.4159C290.1 22.2231 290.413 21.9097 290.751 21.4275C291.45 20.5114 292.125 18.836 291.956 16.6302C291.763 14.4847 290.739 11.7244 288.231 9.89226C285.7 8.13244 281.831 7.74673 278.143 9.06057C276.286 9.68736 274.466 10.6998 272.803 12.0498C271.14 13.3998 269.645 15.0994 268.259 16.9677C265.474 20.7164 263.281 25.2726 260.231 29.6721C258.7 31.8538 256.928 34.0114 254.711 35.8074C252.529 37.6395 249.781 38.8811 246.996 39.6525C244.212 40.4842 241.343 41.0748 238.776 42.4368C236.172 43.7266 233.894 45.7034 231.99 47.9935C228.157 52.6221 226.144 58.4078 225.396 64.0007C224.697 69.6056 225.505 75.3551 223.612 80.5743C222.72 83.1779 220.924 85.3475 218.924 86.9145C216.959 88.5176 214.91 89.8555 213.391 91.5551C210.305 94.9903 209.727 99.6792 210.378 103.488C210.956 107.406 212.752 110.624 214.608 113.143C216.477 115.686 218.441 117.603 220.057 119.134C221.696 120.652 223.01 121.785 223.89 122.569C224.782 123.352 225.24 123.762 225.216 123.798Z" fill="#55646B"/>
<path d="M322.729 86.2276C322.645 86.1673 323.609 85.6128 324.139 83.9253C324.657 82.274 324.465 79.5258 322.765 76.874C321.933 75.5361 320.812 74.2102 319.679 72.7035C318.546 71.2088 317.413 69.437 316.907 67.3276C316.365 65.2303 316.401 62.9401 316.642 60.6499C316.895 58.3477 317.353 56.0214 317.654 53.6227C318.317 48.8375 317.558 44.1848 316.087 40.2915C314.617 36.3861 312.459 33.2161 310.35 30.8777C308.204 28.5513 306.155 26.9723 304.637 26.0442C303.142 25.092 302.25 24.658 302.274 24.6098C302.286 24.5857 302.515 24.6821 302.937 24.8871C303.347 25.104 304.01 25.3571 304.757 25.8393C306.324 26.7071 308.445 28.25 310.663 30.5763C312.857 32.9147 315.087 36.1089 316.618 40.0866C318.149 44.0401 318.944 48.8134 318.269 53.695C317.968 56.1299 317.498 58.4562 317.245 60.7102C316.991 62.9642 316.967 65.17 317.462 67.1709C317.932 69.1839 318.98 70.8834 320.089 72.378C321.186 73.8727 322.307 75.2347 323.139 76.6209C324.85 79.4053 324.983 82.274 324.368 83.9856C324.067 84.8535 323.633 85.432 323.295 85.7575C322.946 86.107 322.729 86.2396 322.729 86.2276Z" fill="#828282"/>
<path d="M216.291 389.051C206.401 398.451 173.317 393.629 148.335 383.776C142.509 381.475 135.214 378.207 127.172 373.727C132.399 373.433 165.214 369.676 157.27 320.875C156.915 318.709 130.514 346.322 126.548 373.372C115.789 367.313 104.786 360.141 88.1883 344.4C84.3572 340.765 71.7379 326.297 64.4674 314.682C69.3634 312.295 91.5053 299.994 103.904 267.362C104.675 265.331 65.9852 277.779 63.5984 313.262C57.0868 302.625 51.334 290.594 46.8298 276.958C46.8787 276.946 46.9399 276.922 46.9889 276.897C46.8543 276.518 46.7196 276.138 46.6217 275.747C46.5605 275.514 46.5115 275.294 46.4503 275.061C46.4381 275.257 46.4136 275.441 46.4014 275.637C43.6719 267.179 41.4197 258.134 39.7551 248.427C41.9093 246.151 49.1921 235.637 42.1786 202.43C41.7502 200.398 30.7711 217.84 37.6988 244.021C39.339 254.951 41.7013 265.098 44.6511 274.51C13.7087 250.373 0 274.829 0 274.829C17.4296 281.793 42.1052 276.799 44.8591 275.184C49.4491 289.676 55.4344 302.417 62.252 313.617C62.2887 313.641 64.5898 317.338 64.9938 317.962C72.3744 329.296 80.5996 338.966 89.0696 347.154C89.0696 347.179 89.0574 347.215 89.0574 347.24C89.0574 347.24 89.0941 347.24 89.1675 347.24C89.4857 347.558 89.8162 347.864 90.1345 348.17C53.1945 340.043 30.1713 355 30.1713 355C57.711 372.699 87.0011 354.486 91.8236 349.749C101.077 358.317 110.514 365.171 119.351 370.642C121.126 371.365 122.754 372.417 124.259 373.617L124.271 373.605C133.268 378.782 141.432 382.478 147.833 385C166.254 392.27 183.17 395.404 195.948 395.404C206.071 395.404 213.586 393.433 217.197 390.006L216.291 389.051Z" fill="#DEF5FF"/>
<path d="M123.525 374.058C122.68 373.593 121.75 373.14 120.771 373.127C120.098 373.115 119.963 372.307 120.342 371.965C119.89 371.659 119.437 371.34 119.008 370.998C118.947 370.949 118.898 370.888 118.874 370.826C85.2875 366.2 71.64 378.758 71.64 378.758C97.4539 393.703 118.298 380.398 124.235 374.474C123.99 374.327 123.757 374.192 123.525 374.058Z" fill="#AFE0FD"/>
<path d="M80.612 234.657C81.3586 232.699 50.404 243.287 46.3893 275.637C46.5484 275.698 46.6586 276.542 46.8177 276.971C52.1787 274.572 69.1922 264.719 80.612 234.657Z" fill="#AFE0FD"/>
<path d="M63.9042 316.224C33.3167 290.643 12.6925 312.454 12.6925 312.454C30.3914 321.206 58.2248 319.761 64.9813 317.974C64.9813 317.974 63.9409 316.408 63.9164 316.249C63.9164 316.236 63.9164 316.224 63.9042 316.224Z" fill="#AFE0FD"/>
<path d="M119.853 294.388C119.51 292.295 95.9115 320.826 90.6239 346.934C90.8197 346.909 91.1257 347.166 91.4317 347.448C100.881 345.991 126.878 337.558 119.853 294.388Z" fill="#AFE0FD"/>
<path d="M479.961 394.74H82.6914C79.7293 394.74 73.9521 379.795 76.9019 379.795H486.032C489.006 379.783 482.923 394.74 479.961 394.74Z" fill="#92D3FC"/>
<g opacity="0.1">
<g opacity="0.1">
<g opacity="0.1">
<path opacity="0.1" d="M243.217 240.285L243.756 207.531L241.014 208.058L240.476 240.493C225.641 243.027 222.667 269.392 222.152 302.99V303.002L222.116 304.875C222.116 311.742 225.763 313.455 230.427 314.177C232.116 314.434 233.903 314.545 235.555 314.593C235.996 315.573 236.963 316.258 238.113 316.258C239.655 316.258 240.916 315.01 240.916 313.455V311.166C240.916 309.624 239.668 308.363 238.113 308.363C236.706 308.363 235.58 309.428 235.396 310.787C231.675 310.603 227.097 309.808 225.604 307.054C224.148 304.373 224.992 298.682 225.127 294.838C226.106 265.45 229.301 243.113 242.936 243.113C256.559 243.113 262.923 265.389 263.915 294.716C264.037 298.4 264.686 303.798 263.303 306.552C262.054 309.037 258.701 310.138 255.371 310.591C255.017 309.269 253.744 308.376 252.348 308.547C250.818 308.731 249.717 310.126 249.9 311.668L250.17 313.933C250.353 315.462 251.748 316.564 253.291 316.38C254.453 316.234 255.371 315.401 255.653 314.324C261.002 313.59 267.048 311.215 266.852 304.214L266.816 301.46C266.828 301.423 266.84 301.374 266.852 301.338C266.192 266.968 259.484 240.616 243.217 240.285Z" fill="#0E3368"/>
</g>
</g>
<g opacity="0.1">
<g opacity="0.1">
<path opacity="0.1" d="M376.142 266.76C373.376 201.852 343.266 187.103 341.969 186.503C341.969 186.503 343.707 187.886 351.259 198.339C359.129 209.22 371.332 228.841 372.984 266.833C366.485 267.739 361.479 273.308 361.479 280.065C361.479 287.445 367.464 293.431 374.845 293.431C382.225 293.431 388.211 287.445 388.211 280.065C388.223 273.113 382.923 267.409 376.142 266.76Z" fill="#0E3368"/>
</g>
</g>
</g>
<path d="M353.694 386.65H223.413C222.703 386.65 222.116 386.074 222.116 385.352V385.156C222.116 384.446 222.691 383.859 223.413 383.859H353.694C354.404 383.859 354.992 384.434 354.992 385.156V385.352C354.98 386.074 354.404 386.65 353.694 386.65Z" fill="#D7E9FF"/>
<g opacity="0.2">
<g opacity="0.2">
<g opacity="0.2">
<path opacity="0.2" d="M130.096 359.428L291.687 378.461L138.089 380.138C138.089 380.138 127.428 377.127 130.096 359.428Z" fill="#8FA7D7"/>
</g>
</g>
<g opacity="0.2">
<g opacity="0.2">
<path opacity="0.2" d="M473.927 291.656C472.568 290.86 401.283 378.461 402.177 378.461C403.07 378.461 463.792 379.942 464.539 378.461C465.285 376.98 488.688 295.218 488.688 295.218C488.688 295.218 479.019 294.618 473.927 291.656Z" fill="#8FA7D7"/>
</g>
</g>
</g>
<path d="M483.13 380.207H400.595C392.821 380.207 386.523 373.993 386.523 366.322V325.981C386.523 318.311 392.821 312.097 400.595 312.097H483.13C490.904 312.097 497.202 318.311 497.202 325.981V366.322C497.202 373.993 490.904 380.207 483.13 380.207Z" fill="#C8EBFF"/>
<path d="M472.439 380.579H390.309C382.574 380.579 376.307 374.312 376.307 366.576V325.891C376.307 318.155 382.574 311.888 390.309 311.888H472.439C480.175 311.888 486.441 318.155 486.441 325.891V366.576C486.429 374.312 480.162 380.579 472.439 380.579Z" fill="#DEF5FF"/>
<path d="M436.846 331.521H419.906C409.086 331.521 400.273 322.721 400.273 311.888C400.273 301.068 409.073 292.256 419.906 292.256H436.846C447.666 292.256 456.478 301.056 456.478 311.888C456.478 322.721 447.666 331.521 436.846 331.521ZM419.906 300.628C413.7 300.628 408.645 305.683 408.645 311.888C408.645 318.094 413.7 323.149 419.906 323.149H436.846C443.051 323.149 448.106 318.094 448.106 311.888C448.106 305.683 443.051 300.628 436.846 300.628H419.906Z" fill="#DEF5FF"/>
<path d="M376.319 325.866C376.319 318.155 382.574 311.888 390.297 311.888H472.476C480.187 311.888 486.454 318.143 486.454 325.866H376.319Z" fill="#DEF5FF"/>
<path d="M446.527 343.569H434.851V332.038C434.851 330.116 433.296 328.562 431.374 328.562C429.453 328.562 427.898 330.116 427.898 332.038V343.569H416.221C414.3 343.569 412.745 345.124 412.745 347.045C412.745 348.967 414.3 350.521 416.221 350.521H427.898V362.356C427.898 364.278 429.453 365.832 431.374 365.832C433.296 365.832 434.851 364.278 434.851 362.356V350.521H446.527C448.449 350.521 450.004 348.967 450.004 347.045C450.004 345.124 448.449 343.569 446.527 343.569Z" fill="#FFBDC2"/>
</svg>
