<svg xmlns="http://www.w3.org/2000/svg" xmlns:xlink="http://www.w3.org/1999/xlink" viewBox="0 0 421.54 207.28"><defs><style>.cls-1,.cls-18,.cls-22,.cls-25,.cls-3,.cls-36,.cls-37,.cls-38,.cls-39,.cls-41,.cls-44,.cls-51,.cls-52,.cls-57,.cls-58,.cls-59,.cls-60,.cls-7,.cls-8,.cls-9{fill:none;}.cls-2{fill:#d4f4ff;}.cls-3,.cls-8{stroke:#4144b3;}.cls-18,.cls-25,.cls-3,.cls-38,.cls-57,.cls-7,.cls-8,.cls-9{stroke-miterlimit:10;}.cls-3{stroke-width:0.68px;}.cls-4{fill:#4144b3;}.cls-5{fill:#ccbfff;}.cls-6{fill:#f0f6f7;}.cls-7{stroke:#304965;stroke-width:0.68px;}.cls-8{stroke-width:0.7px;}.cls-9{stroke:#00b390;}.cls-10{fill:#00b390;}.cls-11{fill:#ecebf7;}.cls-12{fill:#f8a270;}.cls-13{fill:#18236b;}.cls-14{fill:#f8b791;}.cls-15{fill:#6d56c7;}.cls-16{fill:#7c62e3;}.cls-17{fill:#00ab89;}.cls-18{stroke:#00c9a2;stroke-width:0.5px;}.cls-18,.cls-22,.cls-36,.cls-37,.cls-39,.cls-41,.cls-44,.cls-51,.cls-52,.cls-58,.cls-59,.cls-60{stroke-linecap:round;}.cls-19{clip-path:url(#clip-path);}.cls-20{fill:url(#Безымянный_градиент_201);}.cls-21{fill:#01010a;}.cls-22,.cls-36,.cls-37,.cls-44,.cls-51,.cls-58,.cls-59{stroke:#18236b;}.cls-22,.cls-36,.cls-37,.cls-39,.cls-41,.cls-44,.cls-51,.cls-52,.cls-58,.cls-59,.cls-60{stroke-linejoin:round;}.cls-22{stroke-width:0.36px;}.cls-23{fill:#eb8574;}.cls-24{fill:#fff;}.cls-25,.cls-38{stroke:#006aff;}.cls-25{stroke-width:0.18px;}.cls-26{fill:#cb3993;}.cls-27{fill:#13162b;}.cls-28{fill:url(#Безымянный_градиент_13);}.cls-29{fill:url(#Безымянный_градиент_13-2);}.cls-30{fill:url(#Безымянный_градиент_13-3);}.cls-31{fill:url(#Безымянный_градиент_48);}.cls-32{fill:url(#Безымянный_градиент_32);}.cls-33{fill:url(#Безымянный_градиент_159);}.cls-34{fill:#060f47;}.cls-35{fill:url(#Безымянный_градиент_232);}.cls-36{stroke-width:0.3px;}.cls-37{stroke-width:0.3px;}.cls-38{stroke-width:0.13px;}.cls-39,.cls-52,.cls-60{stroke:#f8a17e;}.cls-39{stroke-width:0.17px;}.cls-40{fill:#cdd3d5;}.cls-41{stroke:#fff;}.cls-42{clip-path:url(#clip-path-2);}.cls-43{fill:url(#Безымянный_градиент_201-2);}.cls-44{stroke-width:0.35px;}.cls-45{fill:#ff479d;}.cls-46{fill:#1a1714;}.cls-47{fill:#b7bcbe;}.cls-48{fill:#0b52ff;}.cls-49{fill:#f8a17e;}.cls-50{fill:url(#Безымянный_градиент_201-3);}.cls-51{stroke-width:0.49px;}.cls-52{stroke-width:0.21px;}.cls-53{fill:url(#Безымянный_градиент_219);}.cls-54{fill:#006aff;}.cls-55{clip-path:url(#clip-path-3);}.cls-56{fill:#010354;}.cls-57{stroke:#7c62e3;stroke-width:0.75px;}.cls-58{stroke-width:0.42px;}.cls-59{stroke-width:0.42px;}.cls-60{stroke-width:0.24px;}.cls-61{fill:url(#Безымянный_градиент_232-2);}.cls-62{fill:#005fe6;}.cls-63{fill:#1b77fa;}</style><clipPath id="clip-path"><path class="cls-1" d="M92.19,31.06c-.36,3-.45,6.25,1.12,8.84a5.37,5.37,0,0,0,1.81,1.89,3.43,3.43,0,0,0,2.55.45c1.56-.38,2.51-2,3.1-3.44A20,20,0,0,0,102,33.51a7.16,7.16,0,0,0-.22-3.09c-.7-2-2.78-3.39-4.53-4.38-1.52-.86-2.9-.79-3.89.76A9.88,9.88,0,0,0,92.19,31.06Z"/></clipPath><linearGradient id="Безымянный_градиент_201" x1="-669.54" y1="-513.21" x2="-669.57" y2="-509" gradientTransform="translate(790.26 519.84) rotate(-2.45)" gradientUnits="userSpaceOnUse"><stop offset="0" stop-color="#fff" stop-opacity="0"/><stop offset="0.79" stop-color="#f8b791"/></linearGradient><linearGradient id="Безымянный_градиент_13" x1="83.47" y1="91.36" x2="84.47" y2="201.36" gradientUnits="userSpaceOnUse"><stop offset="0" stop-color="#ffd100"/><stop offset="1" stop-color="#ffad00"/></linearGradient><linearGradient id="Безымянный_градиент_13-2" x1="189.97" y1="90.39" x2="190.97" y2="200.39" xlink:href="#Безымянный_градиент_13"/><linearGradient id="Безымянный_градиент_13-3" x1="321.4" y1="89.2" x2="322.4" y2="199.2" xlink:href="#Безымянный_градиент_13"/><linearGradient id="Безымянный_градиент_48" x1="369.7" y1="138.8" x2="354.96" y2="167.68" gradientUnits="userSpaceOnUse"><stop offset="0" stop-color="#ffd100" stop-opacity="0"/><stop offset="0.83" stop-color="#ff9b00"/></linearGradient><linearGradient id="Безымянный_градиент_32" x1="304.77" y1="179.75" x2="347.51" y2="181.76" gradientUnits="userSpaceOnUse"><stop offset="0.14" stop-color="#ffd100" stop-opacity="0"/><stop offset="0.76" stop-color="#ff9b00"/></linearGradient><linearGradient id="Безымянный_градиент_159" x1="147.31" y1="160.09" x2="193.29" y2="160.09" gradientUnits="userSpaceOnUse"><stop offset="0" stop-color="#ffd100" stop-opacity="0"/><stop offset="0.76" stop-color="#ff9b00"/></linearGradient><linearGradient id="Безымянный_градиент_232" x1="128.54" y1="161.48" x2="126.37" y2="161.74" gradientTransform="matrix(-0.85, 0.53, 0.53, 0.85, 66.7, -49.03)" gradientUnits="userSpaceOnUse"><stop offset="0.01" stop-color="#f8b791"/><stop offset="0.94" stop-color="#f89b91"/></linearGradient><clipPath id="clip-path-2"><path class="cls-1" d="M168.17,88.1c.34,2.92.42,6.07-1.11,8.58a5.2,5.2,0,0,1-1.77,1.84,3.32,3.32,0,0,1-2.47.43c-1.52-.37-2.43-1.89-3-3.35a19.31,19.31,0,0,1-1.23-5.13,6.89,6.89,0,0,1,.22-3c.69-1.92,2.7-3.29,4.41-4.25,1.47-.83,2.81-.76,3.78.75A9.78,9.78,0,0,1,168.17,88.1Z"/></clipPath><linearGradient id="Безымянный_градиент_201-2" x1="-366.22" y1="-229.56" x2="-366.25" y2="-225.47" gradientTransform="matrix(-1, -0.04, -0.04, 1, -214.93, 305.6)" xlink:href="#Безымянный_градиент_201"/><linearGradient id="Безымянный_градиент_201-3" x1="-181.19" y1="59.08" x2="-181.25" y2="65.87" gradientTransform="matrix(-1, 0, 0, 1, 65.05, 86.44)" xlink:href="#Безымянный_градиент_201"/><linearGradient id="Безымянный_градиент_219" x1="214.68" y1="193.83" x2="262.58" y2="193.83" gradientUnits="userSpaceOnUse"><stop offset="0.01" stop-color="#006aff"/><stop offset="0.94" stop-color="#0056cf"/></linearGradient><clipPath id="clip-path-3"><path class="cls-1" d="M398.92,194.6a96.85,96.85,0,0,0-1.78-53.41c-3.14.33-6.14.67-6.83.66,2-1,4.05-2,6-3a100.1,100.1,0,0,0-9.19-19.57,21.62,21.62,0,0,1-8.14.86c.45-.64,3.52-2.5,6-4.26a95.21,95.21,0,0,0-8.84-11.28,33.31,33.31,0,0,1-4.37,4.36c.15-.5,1.25-3.84,2.14-6.72-5.54-5.61-12-10.5-19.5-12.7-.25-.08-.49-.15-.74-.21a129.24,129.24,0,0,0-.44,21.37c3.24,2.34,6.38,5.06,10.09,6.34l-9.87-3.39q.07,1,.18,2a132.86,132.86,0,0,0,3.62,20.19c1.83.45,3.37.71,3.81.41-1,.71-2.08,1.36-3.17,2A131.47,131.47,0,0,0,366,159.68c7,14.53,14.43,29.32,30,36.09a2.57,2.57,0,0,0,2,.25,1.34,1.34,0,0,0,.23-.13A2.23,2.23,0,0,0,398.92,194.6Z"/></clipPath><linearGradient id="Безымянный_градиент_232-2" x1="-269.07" y1="-310.66" x2="-269.13" y2="-304.78" gradientTransform="matrix(-1, 0, 0, 1, 58.48, 344.31)" xlink:href="#Безымянный_градиент_232"/></defs><title>Asset 1</title><g id="Layer_2" data-name="Layer 2"><g id="OBJECTS"><path class="cls-2" d="M335.85,37.16H397.1c1.65-4.16,2.13-9.09-.05-13s-7.65-6.09-11.42-3.68c-1.34.87-2.72,2.29-4.25,1.8A3.53,3.53,0,0,1,379.79,21c-3-3.88-4.15-9.16-8.06-12.07-4.85-3.6-12.89-1.26-15,4.39-1,2.73-1.26,6.4-4,7.42-1.85.68-3.85-.33-5.8-.6a8,8,0,0,0-8.74,6.63,15.65,15.65,0,0,0-15.78,10.44Z"/><path class="cls-2" d="M124,55H64.49c-1.61-4-2.07-8.83.05-12.63S72,36.41,75.62,38.76c1.31.83,2.65,2.22,4.13,1.74a3.38,3.38,0,0,0,1.54-1.29c2.87-3.77,4-8.9,7.83-11.72,4.71-3.5,12.52-1.22,14.6,4.26,1,2.65,1.23,6.22,3.89,7.2,1.8.67,3.73-.31,5.63-.58a7.81,7.81,0,0,1,8.49,6.44A15.21,15.21,0,0,1,137.05,55Z"/><path class="cls-3" d="M33.28,162.23A179.75,179.75,0,0,0,18.39,76.32"/><path class="cls-4" d="M17.61,85.11a6.26,6.26,0,0,0-2.32-1,2.51,2.51,0,0,0-2.29.78,2.53,2.53,0,0,0,.08,2.94,6.09,6.09,0,0,0,2.49,1.89c1.11.54,7.59,3.22,8.53,1.7C25,90.11,18.61,85.73,17.61,85.11Z"/><path class="cls-4" d="M18.86,93.17a6,6,0,0,0-2.43-.62,2.5,2.5,0,0,0-2.15,1.1,2.53,2.53,0,0,0,.49,2.9,6.16,6.16,0,0,0,2.74,1.51c1.18.38,8,2.11,8.69.47C26.85,97.06,19.94,93.63,18.86,93.17Z"/><path class="cls-4" d="M19.75,101.89a6.24,6.24,0,0,0-2.51,0,2.51,2.51,0,0,0-1.84,1.57,2.56,2.56,0,0,0,1.16,2.71,6.23,6.23,0,0,0,3,.83c1.24.09,8.24.2,8.56-1.56C28.42,103.83,20.91,102.09,19.75,101.89Z"/><path class="cls-4" d="M24.09,127.28a6.2,6.2,0,0,0-2.5,0,2.27,2.27,0,0,0-.69,4.28,6.15,6.15,0,0,0,3,.83c1.24.1,8.24.21,8.57-1.56C32.76,129.21,25.25,127.48,24.09,127.28Z"/><path class="cls-4" d="M24.94,118.11a4.7,4.7,0,0,0-1.94,0,1.75,1.75,0,0,0-.52,3.3,4.75,4.75,0,0,0,2.32.64c.95.07,6.35.15,6.59-1.21S25.83,118.26,24.94,118.11Z"/><path class="cls-4" d="M40.78,142.6a4.92,4.92,0,0,0,1.71-.9,1.94,1.94,0,0,0,.67-1.74,2,2,0,0,0-1.78-1.41,4.71,4.71,0,0,0-2.34.54c-.88.39-5.66,2.9-5.23,4.21S39.92,142.89,40.78,142.6Z"/><path class="cls-4" d="M40.16,135.78a4.8,4.8,0,0,0,1.86-.53,1.93,1.93,0,0,0,1-1.56,2,2,0,0,0-1.45-1.75,4.8,4.8,0,0,0-2.41.05c-.93.21-6.13,1.67-6,3C33.33,136.26,39.26,135.89,40.16,135.78Z"/><path class="cls-4" d="M28.31,136.86a4.63,4.63,0,0,0-1.83-.62,1.92,1.92,0,0,0-1.72.71,2,2,0,0,0,.2,2.26,4.76,4.76,0,0,0,2,1.33c.88.36,6,2.11,6.64.9S29.11,137.28,28.31,136.86Z"/><path class="cls-4" d="M22.45,108.89a5.15,5.15,0,0,0-2.14,0,2.16,2.16,0,0,0-1.58,1.34,2.19,2.19,0,0,0,1,2.32,5.34,5.34,0,0,0,2.58.71c1.06.08,7.05.17,7.32-1.34C29.87,110.54,23.44,109.06,22.45,108.89Z"/><path class="cls-4" d="M17.66,70.1A6.15,6.15,0,0,0,16.31,68,2.52,2.52,0,0,0,14,67.32a2.55,2.55,0,0,0-1.62,2.46,6.26,6.26,0,0,0,1,3c.6,1.09,4.38,7,6,6.28C20.83,78.4,18.14,71.18,17.66,70.1Z"/><path class="cls-4" d="M27.9,79.37a6.2,6.2,0,0,0,.51-2.46,2.55,2.55,0,0,0-1.19-2.11,2.55,2.55,0,0,0-2.88.63A6.12,6.12,0,0,0,23,78.23c-.33,1.2-1.75,8-.08,8.7C24.36,87.51,27.49,80.47,27.9,79.37Z"/><path class="cls-4" d="M32.3,89.51a6.1,6.1,0,0,0,1-2.29,2.5,2.5,0,0,0-.7-2.31,2.54,2.54,0,0,0-2.94,0,6.25,6.25,0,0,0-2,2.42c-.58,1.1-3.49,7.47-2,8.47C27,96.67,31.65,90.49,32.3,89.51Z"/><path class="cls-4" d="M35.55,98A6.24,6.24,0,0,0,37,96a2.51,2.51,0,0,0-.21-2.41A2.54,2.54,0,0,0,33.94,93a6.26,6.26,0,0,0-2.43,2c-.79,1-4.94,6.6-3.69,7.89S34.71,98.84,35.55,98Z"/><path class="cls-4" d="M38,106.73a6.13,6.13,0,0,0,1.75-1.8,2.27,2.27,0,0,0-2.65-3.43,6.18,6.18,0,0,0-2.67,1.62c-.92.83-5.8,5.86-4.74,7.3C30.63,111.71,37.05,107.44,38,106.73Z"/><path class="cls-4" d="M39.81,114.83a6.12,6.12,0,0,0,1.75-1.8,2.27,2.27,0,0,0-2.65-3.43,6.25,6.25,0,0,0-2.67,1.61c-.92.84-5.8,5.86-4.73,7.31C32.46,119.81,38.87,115.54,39.81,114.83Z"/><path class="cls-4" d="M40.63,122.16a6,6,0,0,0,1.75-1.81,2.5,2.5,0,0,0,.12-2.41,2.55,2.55,0,0,0-2.77-1,6.28,6.28,0,0,0-2.67,1.62c-.92.84-5.8,5.86-4.73,7.3C33.28,127.13,39.69,122.86,40.63,122.16Z"/><path class="cls-4" d="M41.74,130.34a6.16,6.16,0,0,0,2.44-.58,2.27,2.27,0,0,0-.39-4.32,6.22,6.22,0,0,0-3.12-.06c-1.23.21-8,1.83-7.92,3.62C32.86,130.6,40.57,130.43,41.74,130.34Z"/><path class="cls-5" d="M5.3,152.82c-1-1.39-2-3.07-1.42-4.67,1-3,5.55-2.08,8.36-.55-4.93-4.13-10.11-8.62-12-14.79a4.41,4.41,0,0,1-.18-2.46c.47-1.58,2.42-2.32,4-2a10.2,10.2,0,0,1,4.24,2.44,33.08,33.08,0,0,1-4-26.83,2.67,2.67,0,0,1,1.18-1.8,2.55,2.55,0,0,1,2.29.46,21.33,21.33,0,0,1,9.41,11.93c-.86-3.11,3.76-5.44,6.54-3.81s3.71,5.21,3.93,8.43,0,6.63,1.57,9.47c-1-1.71.89-4,2.86-3.91s3.51,1.92,4,3.84a13.86,13.86,0,0,1-.33,5.86q-.81,4.1-1.64,8.17a3.89,3.89,0,0,0,2.75-.71c3.14,2,3.23,6.43,3,10.12-.7,9.46-1.19,20.39-6.46,28.53C21.88,176.51,12,162.44,5.3,152.82Z"/><path class="cls-6" d="M19.31,122.75c-.12-.67-.39-1.69.42-1.71,1.19,0,1.16,3.55,0,3.33-.47-.1-.29-1.16-.41-1.62"/><path class="cls-6" d="M34.58,149.87c-.12-.67-.39-1.69.42-1.71,1.19,0,1.17,3.55,0,3.32-.47-.09-.29-1.15-.42-1.61"/><path class="cls-6" d="M31.38,139c.28-.62.64-1.61,1.32-1.17,1,.65-1.07,3.59-1.9,2.74-.34-.35.41-1.11.58-1.57"/><path class="cls-6" d="M22.59,155.83c.28-.62.64-1.61,1.32-1.17,1,.65-1.06,3.59-1.9,2.74-.33-.35.42-1.12.58-1.57"/><path class="cls-6" d="M12.32,136.06c.61.31,1.58.71,1.11,1.37-.69,1-3.54-1.22-2.65-2,.36-.32,1.09.46,1.54.64"/><path class="cls-6" d="M16,160.4c.6.31,1.58.71,1.11,1.37-.7,1-3.54-1.22-2.65-2,.35-.32,1.09.46,1.54.64"/><path class="cls-6" d="M11.8,116.45c.21.66.61,1.63-.19,1.76-1.18.19-1.62-3.37-.43-3.3.48,0,.44,1.1.62,1.54"/><path class="cls-6" d="M25.52,131.8c-.3.62-.68,1.6-1.35,1.14-1-.68,1.15-3.56,2-2.69.33.35-.44,1.1-.61,1.55"/><path class="cls-6" d="M23.65,120.58c.21.65.61,1.63-.19,1.75-1.18.19-1.62-3.37-.44-3.3.48,0,.44,1.11.63,1.55"/><path class="cls-6" d="M16.06,149.26c.62.29,1.6.66,1.16,1.33-.66,1-3.58-1.09-2.73-1.91.35-.34,1.11.42,1.57.58"/><path class="cls-6" d="M11.84,125.72c.62.29,1.61.65,1.16,1.33-.66,1-3.58-1.09-2.72-1.92.34-.33,1.11.42,1.56.59"/><path class="cls-6" d="M27.5,166.65c.62.29,1.61.66,1.16,1.33-.66,1-3.58-1.09-2.72-1.92.35-.33,1.11.43,1.56.59"/><path class="cls-6" d="M33.5,158.78c.23-.64.5-1.66,1.22-1.28,1.05.56-.75,3.67-1.66,2.89-.36-.31.32-1.14.44-1.61"/><path class="cls-6" d="M25.9,144c-.31-.61-.87-1.5-.1-1.76,1.13-.38,2.16,3.06,1,3.19-.47,0-.61-1-.87-1.43"/><path class="cls-7" d="M14.3,121.76A393.6,393.6,0,0,1,36.06,191"/><path class="cls-8" d="M355.62,128.13a185.7,185.7,0,0,1,28.93-85.34"/><path class="cls-4" d="M383.94,51.9a6.23,6.23,0,0,1,2.53-.61,2.61,2.61,0,0,1,2.21,1.16,2.65,2.65,0,0,1-.55,3A6.41,6.41,0,0,1,385.28,57c-1.22.38-8.26,2.08-9,.38C375.65,55.82,382.82,52.36,383.94,51.9Z"/><path class="cls-4" d="M381.37,59.92a6.35,6.35,0,0,1,2.59-.25A2.35,2.35,0,0,1,385,64a6.46,6.46,0,0,1-3,1.1c-1.27.2-8.48.88-9-.91C372.6,62.62,380.2,60.21,381.37,59.92Z"/><path class="cls-4" d="M379.07,68.68a6.37,6.37,0,0,1,2.57.37,2.35,2.35,0,0,1,0,4.48,6.42,6.42,0,0,1-3.2.37c-1.28-.1-8.45-1.12-8.5-3C369.91,69.28,377.86,68.7,379.07,68.68Z"/><path class="cls-4" d="M370.58,93.91a6.37,6.37,0,0,1,2.57.37,2.57,2.57,0,0,1,1.63,1.89,2.62,2.62,0,0,1-1.61,2.58,6.36,6.36,0,0,1-3.21.37c-1.28-.1-8.45-1.11-8.49-3C361.42,94.5,369.37,93.93,370.58,93.91Z"/><path class="cls-4" d="M371.19,84.41a4.91,4.91,0,0,1,2,.28,1.8,1.8,0,0,1,0,3.45,4.93,4.93,0,0,1-2.47.29c-1-.08-6.51-.86-6.55-2.29C364.13,84.87,370.26,84.42,371.19,84.41Z"/><path class="cls-4" d="M351.1,106.88a4.82,4.82,0,0,1-1.6-1.19,1.8,1.8,0,0,1,1.63-3,5,5,0,0,1,2.31.92c.83.54,5.31,3.86,4.66,5.13S351.93,107.32,351.1,106.88Z"/><path class="cls-4" d="M352.82,100a5,5,0,0,1-1.81-.83,1.81,1.81,0,0,1,1-3.31,5,5,0,0,1,2.45.43c.92.36,6,2.69,5.61,4.07S353.72,100.28,352.82,100Z"/><path class="cls-4" d="M364.75,103a4.75,4.75,0,0,1,2-.34,2,2,0,0,1,1.65,1,2,2,0,0,1-.57,2.28,5,5,0,0,1-2.26,1c-1,.23-6.45,1.2-6.93-.14S363.86,103.32,364.75,103Z"/><path class="cls-4" d="M375.2,75.39a5.4,5.4,0,0,1,2.19.32,2.22,2.22,0,0,1,1.4,1.62,2.27,2.27,0,0,1-1.38,2.21,5.45,5.45,0,0,1-2.75.31c-1.09-.08-7.22-.95-7.26-2.53C367.36,75.9,374.16,75.41,375.2,75.39Z"/><path class="cls-4" d="M386.29,36.56A6.28,6.28,0,0,1,388,34.62a2.34,2.34,0,0,1,3.74,2.46A6.37,6.37,0,0,1,390.29,40c-.79,1-5.59,6.43-7.16,5.44C381.72,44.52,385.63,37.58,386.29,36.56Z"/><path class="cls-4" d="M374.35,44.38a6.47,6.47,0,0,1-.12-2.59,2.34,2.34,0,0,1,4.39-.86,6.35,6.35,0,0,1,1,3.08c.14,1.28.5,8.51-1.31,8.9C376.67,53.27,374.6,45.57,374.35,44.38Z"/><path class="cls-4" d="M368.24,54a6.36,6.36,0,0,1-.69-2.5,2.59,2.59,0,0,1,1.08-2.26,2.62,2.62,0,0,1,3,.45,6.36,6.36,0,0,1,1.63,2.78c.42,1.21,2.37,8.18.7,9C372.47,62.19,368.75,55.14,368.24,54Z"/><path class="cls-4" d="M363.57,62.2a6.24,6.24,0,0,1-1.19-2.3A2.35,2.35,0,0,1,366,57.29a6.42,6.42,0,0,1,2.16,2.4c.66,1.1,4,7.53,2.51,8.64C369.36,69.32,364.29,63.18,363.57,62.2Z"/><path class="cls-4" d="M359.68,70.71a6.31,6.31,0,0,1-1.5-2.12,2.6,2.6,0,0,1,.26-2.48,2.63,2.63,0,0,1,3-.6,6.43,6.43,0,0,1,2.47,2.08c.8,1,5,6.91,3.67,8.22C366.39,77,360.52,71.58,359.68,70.71Z"/><path class="cls-4" d="M356.53,78.69a6.26,6.26,0,0,1-1.5-2.12,2.34,2.34,0,0,1,3.25-3.08,6.42,6.42,0,0,1,2.47,2.08c.8,1,5,6.91,3.67,8.21S357.37,79.56,356.53,78.69Z"/><path class="cls-4" d="M354.52,86a6.51,6.51,0,0,1-1.5-2.12,2.34,2.34,0,0,1,3.25-3.08,6.35,6.35,0,0,1,2.47,2.08c.8,1,5,6.91,3.67,8.21S355.36,86.91,354.52,86Z"/><path class="cls-4" d="M352.08,94.22a6.21,6.21,0,0,1-2.4-1A2.59,2.59,0,0,1,348.57,91a2.62,2.62,0,0,1,2.2-2.1,6.42,6.42,0,0,1,3.2.43c1.21.41,7.91,3.16,7.5,5C361.1,95.9,353.26,94.5,352.08,94.22Z"/><path class="cls-9" d="M147.81,202.26a179.93,179.93,0,0,0-17.61-85.39"/><path class="cls-10" d="M129.69,125.68a6.27,6.27,0,0,0-2.35-.88,2.27,2.27,0,0,0-2.09,3.79,6.14,6.14,0,0,0,2.55,1.81c1.13.51,7.68,3,8.58,1.43C137.19,130.44,130.71,126.26,129.69,125.68Z"/><path class="cls-10" d="M131.2,133.69a6.15,6.15,0,0,0-2.45-.54,2.27,2.27,0,0,0-1.53,4,6.12,6.12,0,0,0,2.78,1.43c1.19.34,8,1.85,8.7.19C139.3,137.33,132.29,134.12,131.2,133.69Z"/><path class="cls-10" d="M132.37,142.39a6.06,6.06,0,0,0-2.51,0,2.5,2.5,0,0,0-1.79,1.63,2.53,2.53,0,0,0,1.24,2.67,6.19,6.19,0,0,0,3,.74c1.24.05,8.24-.06,8.5-1.84C141.09,144.05,133.53,142.55,132.37,142.39Z"/><path class="cls-10" d="M137.51,167.62a6.06,6.06,0,0,0-2.51,0,2.26,2.26,0,0,0-.54,4.29,6.18,6.18,0,0,0,3,.74c1.24.06,8.24-.06,8.51-1.83C146.24,169.28,138.67,167.78,137.51,167.62Z"/><path class="cls-10" d="M138.06,158.43a4.82,4.82,0,0,0-1.93,0,1.75,1.75,0,0,0-.42,3.31,4.65,4.65,0,0,0,2.33.57c1,0,6.36-.05,6.56-1.41S139,158.55,138.06,158.43Z"/><path class="cls-10" d="M154.67,182.4a4.86,4.86,0,0,0,1.69-1,1.75,1.75,0,0,0-1.21-3.11,4.82,4.82,0,0,0-2.33.61c-.86.42-5.56,3.08-5.09,4.37S153.83,182.72,154.67,182.4Z"/><path class="cls-10" d="M153.84,175.61a4.74,4.74,0,0,0,1.84-.59,1.75,1.75,0,0,0-.55-3.29,4.78,4.78,0,0,0-2.4.12c-.93.24-6.07,1.87-5.88,3.24C147,176.31,152.94,175.75,153.84,175.61Z"/><path class="cls-10" d="M142,177.07a4.54,4.54,0,0,0-1.85-.57,1.93,1.93,0,0,0-1.7.76,2,2,0,0,0,.28,2.26,4.69,4.69,0,0,0,2,1.26c.9.34,6.06,1.93,6.67.69S142.84,177.46,142,177.07Z"/><path class="cls-10" d="M135.29,149.29a5.19,5.19,0,0,0-2.15,0,1.94,1.94,0,0,0-.47,3.67,5.3,5.3,0,0,0,2.6.64c1.06,0,7-.06,7.28-1.57C142.75,150.71,136.28,149.43,135.29,149.29Z"/><path class="cls-10" d="M129.27,110.68a6.24,6.24,0,0,0-1.43-2.07,2.51,2.51,0,0,0-2.34-.6,2.54,2.54,0,0,0-1.54,2.52,6.27,6.27,0,0,0,1.06,2.94c.64,1.06,4.6,6.83,6.23,6.08C132.7,118.87,129.78,111.74,129.27,110.68Z"/><path class="cls-10" d="M139.79,119.61a5.86,5.86,0,0,0,.43-2.47,2.26,2.26,0,0,0-4.11-1.35,6.12,6.12,0,0,0-1.3,2.84c-.29,1.21-1.5,8.11.19,8.7C136.52,127.87,139.42,120.72,139.79,119.61Z"/><path class="cls-10" d="M144.51,129.61a6.24,6.24,0,0,0,1-2.32,2.27,2.27,0,0,0-3.72-2.22,6.12,6.12,0,0,0-1.89,2.48c-.55,1.11-3.26,7.57-1.74,8.53C139.48,136.93,143.9,130.61,144.51,129.61Z"/><path class="cls-10" d="M148,138a6.33,6.33,0,0,0,1.42-2.07,2.27,2.27,0,0,0-3.19-2.94,6.19,6.19,0,0,0-2.36,2.05c-.76,1-4.73,6.75-3.44,8S147.22,138.86,148,138Z"/><path class="cls-10" d="M150.75,146.65a6.25,6.25,0,0,0,1.69-1.86,2.51,2.51,0,0,0,0-2.42,2.55,2.55,0,0,0-2.8-.93,6.16,6.16,0,0,0-2.61,1.71c-.9.86-5.61,6-4.51,7.45S149.83,147.38,150.75,146.65Z"/><path class="cls-10" d="M152.83,154.68a6.22,6.22,0,0,0,1.68-1.86,2.51,2.51,0,0,0,.05-2.42,2.54,2.54,0,0,0-2.8-.92,6.17,6.17,0,0,0-2.62,1.7c-.89.86-5.61,6-4.5,7.45C145.63,159.89,151.91,155.42,152.83,154.68Z"/><path class="cls-10" d="M153.88,162a6.25,6.25,0,0,0,1.69-1.86,2.27,2.27,0,0,0-2.76-3.35,6.1,6.1,0,0,0-2.61,1.71c-.9.86-5.62,6-4.51,7.45C146.68,167.19,153,162.71,153.88,162Z"/><path class="cls-10" d="M155.25,170.12a6.15,6.15,0,0,0,2.42-.66,2.51,2.51,0,0,0,1.33-2,2.54,2.54,0,0,0-1.86-2.28,6.26,6.26,0,0,0-3.13,0c-1.21.26-8,2.09-7.79,3.88C146.38,170.66,154.08,170.25,155.25,170.12Z"/><ellipse class="cls-11" cx="210.88" cy="198.28" rx="194.5" ry="9"/><path class="cls-12" d="M84.79,68.75c7.17,16.74,5,68.33,5,68.33L86.53,136S79.71,79.5,75.71,73.5C81.21,68.5,80.52,69.21,84.79,68.75Z"/><path class="cls-12" d="M85.59,137.39l1.11-1.79,3.13,1.06a9.33,9.33,0,0,0,.49,3.13c.5,1.09,1.34,2.64,1.34,2.64s-6-2.28-6.31-3.28A2,2,0,0,1,85.59,137.39Z"/><path class="cls-13" d="M85.59,137.39a2.81,2.81,0,0,0-1.07,2.28c.17,1.32.36,4.39.36,4.39l1.24.05.07-2.85c0-.18,2.55,3,3,3l6.55.3s.51-1.91-3.32-2.7S85.59,137.39,85.59,137.39Z"/><path class="cls-14" d="M86.46,70.09c0-.81-8.38-1.33-9.75-.09-5.25,4.75-3.26,9.72-2.13,13.78,2,18.16-8.22,52.4-8.22,52.4l3.5.48S88.29,99.77,86.46,70.09Z"/><path class="cls-14" d="M65.66,137.39l1.1-1.79,3.1,1.06a9.5,9.5,0,0,0,.48,3.13c.5,1.09,1.34,2.64,1.34,2.64s-5.92-2.28-6.25-3.28A2,2,0,0,1,65.66,137.39Z"/><path class="cls-13" d="M65.66,137.39a2.82,2.82,0,0,0-1.06,2.28c.17,1.32.36,4.39.36,4.39l1.23.05.07-2.85c0-.18,2.52,3,3,3l6.49.3s.5-1.91-3.28-2.7S65.66,137.39,65.66,137.39Z"/><path class="cls-15" d="M86.66,75.08s1.63,3.67,2.8,14.34a178.88,178.88,0,0,1,1,20.17l-11.33-1.5,4.33-34.5Z"/><path class="cls-16" d="M86.66,75.08A144,144,0,0,1,87,94.25c-.5,11.5-1.67,14.67-1.67,14.67l-19.83-3.17S72.21,86.25,72.71,83s-.87-5.45,0-8a8.72,8.72,0,0,1,4.17-5.16Z"/><path class="cls-17" d="M91.13,47.25c.33-3.07.91-5,3.55-3.09,4,2.79,10.62,11.06,12.41,12.68A5.77,5.77,0,0,0,109,58l18.73,5.29-1,2L106.45,62.9a7.87,7.87,0,0,1-2.28-.77C100.17,60.05,90.51,52.89,91.13,47.25Z"/><path class="cls-14" d="M128.58,65.47a3.85,3.85,0,0,1,2.22.19c1.21.37,3.47,1.92,3.5.49-.86-1.09-1.73-2.49-1.73-2.49a4.1,4.1,0,0,0-2.87-.72l-2.75.54s-.72,1.23-.76,1.28l.41.42A6,6,0,0,1,128.58,65.47Z"/><path class="cls-14" d="M129.2,65.09a.73.73,0,0,1,.19-.1,4.48,4.48,0,0,1-.36-.4l-1.8-.82c-.11.39-.28.94-.29,1l3.55,2.62s.5-.32,0-1.09A4.08,4.08,0,0,0,129.2,65.09Z"/><path class="cls-17" d="M109,58l18.73,5.29-1,2L106.45,62.9C105.65,62.76,108.29,57.73,109,58Z"/><path class="cls-14" d="M40.47,60.37a3.76,3.76,0,0,0-2.22.19c-1.21.36-3.47,1.91-3.5.49.86-1.1,1.73-2.5,1.73-2.5a4.21,4.21,0,0,1,2.87-.72l2.75.54s.72,1.23.76,1.28l-.41.42A6.25,6.25,0,0,0,40.47,60.37Z"/><path class="cls-14" d="M39.85,60a1.07,1.07,0,0,0-.19-.09,4.59,4.59,0,0,0,.36-.41c.61-.26,1.2-.55,1.8-.82.11.39.28.94.29,1l-3.55,2.61s-.5-.31,0-1.09A4.24,4.24,0,0,1,39.85,60Z"/><path class="cls-10" d="M86.29,44.25c-2.59-5.07-21.15,6.63-24.62,8.69-.64.38-20.31,4.88-20.31,4.88l.46,3S62.7,58.93,63.48,58.7C67.81,57.47,88.88,49.31,86.29,44.25Z"/><path class="cls-10" d="M90.18,41.32c3.53,1.38,4.5,2.84,4.5,2.84S97.44,50,97.6,54.24a5.59,5.59,0,0,1-1.68,4.25c-5.12,4.91-9.26,16.59-9.26,16.59l-10.32-4c3-6.52,1.51-21.57,4.29-27.59C80.85,43,86.74,41.48,90.18,41.32Z"/><path class="cls-18" d="M82.75,55.1a3.42,3.42,0,0,0,4.71,1.82"/><path class="cls-18" d="M90.72,58.05a3.68,3.68,0,0,0,5,.47"/><path class="cls-12" d="M96.76,39l-3.42-1.91-1.22,2.2a5.85,5.85,0,0,1-3.89,2.87,1,1,0,0,0-.57.37c-.54.52-.59,1.5.83,3a5.13,5.13,0,0,0,1.12.84,15.32,15.32,0,0,0,3.25,1.46c.75.24,1.71.35,2.19-.27a1.46,1.46,0,0,0,.11-1.34s0,0,0-.06a5.84,5.84,0,0,1,.37-4.88Z"/><path class="cls-14" d="M92.19,31.06c-.36,3-.45,6.25,1.12,8.84a5.37,5.37,0,0,0,1.81,1.89,3.43,3.43,0,0,0,2.55.45c1.56-.38,2.51-2,3.1-3.44A20,20,0,0,0,102,33.51a7.16,7.16,0,0,0-.22-3.09c-.7-2-2.78-3.39-4.53-4.38-1.52-.86-2.9-.79-3.89.76A9.88,9.88,0,0,0,92.19,31.06Z"/><g class="cls-19"><path class="cls-20" d="M99.77,37.09a.8.8,0,0,1-.14.4.36.36,0,0,1-.37.14.36.36,0,0,1-.22-.26A1,1,0,0,1,99,37a10.17,10.17,0,0,1,.2-1.23.44.44,0,0,1,.15-.3C99.82,35.21,99.81,36.89,99.77,37.09Z"/><path class="cls-21" d="M97.75,35c0,.27-.19.47-.33.46s-.24-.26-.21-.53.18-.48.33-.46S97.78,34.76,97.75,35Z"/><path class="cls-22" d="M96.58,33.84a1.71,1.71,0,0,1,1.81,0"/><path class="cls-21" d="M101.42,35.61c-.09.26-.28.43-.42.38s-.18-.3-.1-.56.28-.43.42-.38S101.5,35.35,101.42,35.61Z"/><path class="cls-22" d="M100.52,34.2a1.71,1.71,0,0,1,1.76.4"/><path class="cls-23" d="M93.7,35.48a1.91,1.91,0,0,1,1.44.82,2,2,0,0,1,.24.72,3.53,3.53,0,0,1-1,3,1.89,1.89,0,0,1-.65.43,1.8,1.8,0,0,1-.69.09,2.75,2.75,0,0,1-2.38-1.4C89.55,37.16,91.75,35.22,93.7,35.48Z"/><path class="cls-23" d="M99.73,39.48a1,1,0,0,0,.32,1,1,1,0,0,0,1-.2,4.2,4.2,0,0,0,.72-.74c.45-.58,1.55-2.82,0-2.82C100.67,36.74,99.85,38.54,99.73,39.48Z"/><path class="cls-24" d="M96.31,38l3,1.44s-1.1,1.34-2.12,1C95.81,40.08,96.31,38,96.31,38Z"/></g><path class="cls-13" d="M86.85,23.22c-1.78.14-3.61.72-5.3.13-2-.68-3.09-2.73-4.22-4.5A14.57,14.57,0,0,0,72,13.54a7.43,7.43,0,0,0-7.28,0,5.72,5.72,0,0,1-1.76,1,4.13,4.13,0,0,1-1.6-.08c-3-.52-6.63-.45-8.52,2a6,6,0,0,0-.11,6.61,10.23,10.23,0,0,0,5.54,4.11c2.17.75,4.7,1.16,6.09,3,.78,1,1,2.4,1.83,3.44,1.38,1.88,4,2.34,6.33,2.22s4.68-.67,7-.21a6.06,6.06,0,0,0,2.1.26c1.57-.25,5.14,3.42,9.89.67,3.19-1.85,7-6.95,6.75-11C98.09,23.17,90.08,23,86.85,23.22Z"/><path class="cls-13" d="M98.31,29.74c.41.22.65,1.42.82,2.45a17.81,17.81,0,0,1,3,.36c.12-1.66.21-3.49-.82-4.8a4.23,4.23,0,0,0-1.42-1.13,5.83,5.83,0,0,0-5.7.38c-2.27,1.48-1.49,3.57-1.29,6a19.11,19.11,0,0,1,5.31-.78C98.24,31.18,98.25,30,98.31,29.74Z"/><path class="cls-13" d="M101,26.53a6.85,6.85,0,0,0-2.94-2,8.38,8.38,0,0,0-4.82-.44,3.64,3.64,0,0,0-1.82.92,2,2,0,0,0-.57,1.88,2.22,2.22,0,0,0,1.93,1.43,8.93,8.93,0,0,0,2.52-.22,4.36,4.36,0,0,1,2.51.15,13.93,13.93,0,0,1,1.91,1.45C102.38,31.55,102.18,27.94,101,26.53Z"/><path class="cls-25" d="M90.59,29.58c-1-1.74-3.36-3-4.94-1.83-1.09.82-1.68,2.66-3,2.48a11.4,11.4,0,0,0-3.36-3.48,4.1,4.1,0,0,0-4.57.11,13.29,13.29,0,0,1-1.1,1C72,29,70,27.65,68.52,26.39"/><path class="cls-25" d="M73.79,19.71a11.78,11.78,0,0,0-2.47-2.26,4,4,0,0,0-3.2-.57c-1.86.56-2.77,2.77-4.54,3.56s-3.57.06-5.26-.61"/><polygon class="cls-26" points="132.29 66.08 38.95 66.08 40.13 64.46 131.12 64.46 132.29 66.08"/><path class="cls-27" d="M41.31,66.28H36.79v-3A2.26,2.26,0,0,1,39.05,61h0a2.26,2.26,0,0,1,2.26,2.26Z"/><polygon class="cls-27" points="132.29 66.08 132.29 67.75 129.57 66.06 132.29 66.08"/><rect class="cls-24" x="46.79" y="65.09" width="0.67" height="1"/><rect class="cls-24" x="53.61" y="65.09" width="0.67" height="1"/><rect class="cls-24" x="60.43" y="65.09" width="0.67" height="1"/><rect class="cls-24" x="67.25" y="65.09" width="0.67" height="1"/><rect class="cls-24" x="74.07" y="65.09" width="0.67" height="1"/><rect class="cls-24" x="80.89" y="65.09" width="0.67" height="1"/><rect class="cls-24" x="87.7" y="65.09" width="0.67" height="1"/><rect class="cls-24" x="94.52" y="65.09" width="0.67" height="1"/><rect class="cls-24" x="101.34" y="65.09" width="0.67" height="1"/><rect class="cls-24" x="108.16" y="65.09" width="0.67" height="1"/><rect class="cls-24" x="114.98" y="65.09" width="0.67" height="1"/><rect class="cls-24" x="121.79" y="65.09" width="0.67" height="1"/><path class="cls-28" d="M39.79,195.94V67.5h88.1V98.25H75.07V119.6h43.05v28.58H75.07v47.76Z"/><path class="cls-29" d="M174.92,67.5h32.2l44.5,128.44H215.8L208,170.79H173.83l-7.59,25.15h-36Zm27.5,79.78L191,107.48l-11.94,39.8Z"/><path class="cls-30" d="M350.21,189.79A63.36,63.36,0,0,1,336,195a67.25,67.25,0,0,1-15.83,1.81,62.45,62.45,0,0,1-26.59-5.52,64.36,64.36,0,0,1-20.44-14.65,66.65,66.65,0,0,1-13.21-20.89,64.62,64.62,0,0,1-4.7-24.24,63,63,0,0,1,4.88-24.42,65.57,65.57,0,0,1,34.46-35.19A64.32,64.32,0,0,1,320.9,66.6a61,61,0,0,1,26.6,5.69,66,66,0,0,1,33.55,35.91,65.27,65.27,0,0,1,4.62,24.06,62.49,62.49,0,0,1-4.26,22.88,63.6,63.6,0,0,1-12,19.63l19.54,21.17H356Zm-29.67-24.24a26,26,0,0,0,6.69-.73l-21.16-23.15H339l7.06,7.78a37,37,0,0,0,2.89-8.69,47,47,0,0,0,.91-9.22A43.92,43.92,0,0,0,348,119a32.15,32.15,0,0,0-5.52-10.77,27.61,27.61,0,0,0-9.22-7.51,28.39,28.39,0,0,0-12.94-2.8,27.15,27.15,0,0,0-13.11,3,27.84,27.84,0,0,0-9.14,7.77,32.79,32.79,0,0,0-5.34,10.86,45.41,45.41,0,0,0-1.71,12.39,43.91,43.91,0,0,0,1.8,12.57,33.11,33.11,0,0,0,5.43,10.77,26.51,26.51,0,0,0,9.14,7.5A28.59,28.59,0,0,0,320.54,165.55Z"/><path class="cls-31" d="M348.94,141.1a36.75,36.75,0,0,1-2.86,8.61l23.34,25.36a63.94,63.94,0,0,0,11.44-18.26l-31.45-18.6C349.28,139.18,349.13,140.14,348.94,141.1Z"/><path class="cls-32" d="M327.73,165.16a26.46,26.46,0,0,1-6.69.72,28.73,28.73,0,0,1-13-2.73l2.38,33.3a70.75,70.75,0,0,0,10.22.73,67.78,67.78,0,0,0,15.83-1.81,63.88,63.88,0,0,0,14.2-5.25Z"/><polygon class="cls-33" points="155.78 148.59 193.29 149.88 174.69 171.59 147.31 168.84 155.78 148.59"/><path class="cls-34" d="M71.77,203.67l8.84-2.18c1.2-.16,2.59-.15,3.06.81a6.17,6.17,0,0,1,.46,1.32c-.22.44-12,2.9-12,2.9l-.06,0A1.91,1.91,0,0,1,71.77,203.67Z"/><polygon class="cls-24" points="84.13 203.62 72.09 206.52 72.31 206.97 84.25 204.03 84.13 203.62"/><polygon class="cls-24" points="75.27 202.81 76.06 202.62 76.08 203.76 75.31 203.95 75.27 202.81"/><polygon class="cls-24" points="76.97 202.39 77.77 202.2 77.79 203.34 77.02 203.53 76.97 202.39"/><path class="cls-14" d="M70.45,200.88l1.32,2.79h0a2.93,2.93,0,0,0,2.39-.52l.12-.09L74,200Z"/><path class="cls-34" d="M27.13,190.83s2,12.34,14.35,11c10.4-1.11,20.23-15.51,20.23-15.51l8.87,15.83,3.8-1.51s-3.95-25.48-9.72-25.79S40.1,187.39,40.1,187.39Z"/><path class="cls-34" d="M99.4,201.1l1.57-9c.33-1.17.9-2.44,2-2.48a6.5,6.5,0,0,1,1.39.11c.32.38-2.19,12.19-2.19,12.19l0,0A1.91,1.91,0,0,1,99.4,201.1Z"/><polygon class="cls-24" points="104.33 189.77 102.14 201.96 102.63 201.94 104.76 189.83 104.33 189.77"/><polygon class="cls-24" points="100.02 197.55 100.16 196.75 101.22 197.19 101.08 197.97 100.02 197.55"/><polygon class="cls-24" points="100.32 195.82 100.47 195.02 101.52 195.46 101.38 196.24 100.32 195.82"/><path class="cls-14" d="M96.31,201.19l3.09-.09h0a2.93,2.93,0,0,0,.48-2.39l0-.15-2.91-.95Z"/><path class="cls-13" d="M27.38,189.75c-.73.22.91,7.77,6.59,10.92,4.1,2.27,10.75,1.08,14.25-1.42,14.24-3.25,49.32,2.1,49.32,2.1v-3.62S57.05,180.92,27.38,189.75Z"/><path class="cls-10" d="M27,191.37l17.28-1.49a36.36,36.36,0,0,1-.87-7.73,14.27,14.27,0,0,1,1.31-5.54c-.51-6.6-2.48-13.12-8.3-12.81C26.41,165.58,27,191.37,27,191.37Z"/><path class="cls-14" d="M37.9,177.05l6.83-.58.22,7.6,12.15-3,2.76-1.59a3.32,3.32,0,0,1,2.35-.37l3.24.69a.77.77,0,0,1,.62.69l1,3.57s-.81.53-1.88-2.49c-.82,3.44-5.61.81-5.61.81l-1.73,1.06s-13.36,8.59-16.46,6.65S37.9,177.05,37.9,177.05Z"/><polygon class="cls-12" points="40.47 159.89 40.19 164.53 35.91 164.22 36.34 157.4 40.47 159.89"/><path class="cls-14" d="M44.25,157.48c.16,1.42-.08,3.12-1.33,3.8-1,.57-2.1-.14-3.12-.74-3.07-1.81-5.79-4.41-6.43-7.94a4.56,4.56,0,0,1,.19-2.74c1.32-2.77,5.24-1.85,7-.16A13.55,13.55,0,0,1,44.25,157.48Z"/><path class="cls-13" d="M38.59,157.87a1.44,1.44,0,0,1-1.54.86,9.21,9.21,0,0,1,1.84,3.84A5.53,5.53,0,0,0,41.26,166a4,4,0,0,0,3.3,0,10,10,0,0,0,2.8-1.92,2.23,2.23,0,0,0,1-1.77A1.77,1.77,0,0,0,47.15,161a14.54,14.54,0,0,1-1.75-.63c-.7-.39-1.11-2.29-1.11-2.29S41.8,160.39,38.59,157.87Z"/><path class="cls-35" d="M42.74,154.44a2.43,2.43,0,0,0,2.57,1.6,2.55,2.55,0,0,1-1.62,1.52c-.32-.95-.61-1.92-.88-2.89"/><path class="cls-36" d="M42,152.63a.72.72,0,0,1,.56-.3"/><path class="cls-23" d="M42.4,157.16a1.14,1.14,0,0,1,.27.84.9.9,0,0,1-.62.65,1.73,1.73,0,0,1-.93,0A3.54,3.54,0,0,1,39.8,158a1.38,1.38,0,0,1-.65-1.24C39.52,155,41.82,156.37,42.4,157.16Z"/><path class="cls-21" d="M42.25,155.3c.09.21.07.42,0,.47s-.28-.09-.37-.3-.08-.42,0-.46S42.16,155.09,42.25,155.3Z"/><path class="cls-21" d="M43.59,154.57c.09.21.16.46.11.45a.46.46,0,0,1-.37-.3c-.09-.21-.07-.42,0-.46S43.5,154.36,43.59,154.57Z"/><path class="cls-37" d="M39.68,154.25a1.35,1.35,0,0,1,1-1.07"/><path class="cls-24" d="M42.68,159.57a1,1,0,0,0,1.18.32,1.22,1.22,0,0,0,.49-1,2,2,0,0,1-1.66.66"/><path class="cls-13" d="M40.44,152.32c-.35.22-.89.33-1.13,0a2.07,2.07,0,0,1-2.59,1.55,4,4,0,0,1,.35,4.21,1.73,1.73,0,0,1-1.37.85,1.05,1.05,0,0,1-1.09-1,1,1,0,0,1-1.43-.65,1.53,1.53,0,0,1,.76-1.56,2,2,0,0,1-1.11-2.3,2.87,2.87,0,0,1,1.89-1.91,2.87,2.87,0,0,1,.91-2.38,4.9,4.9,0,0,1,2.84-1.63C41.53,147.05,43.28,150.58,40.44,152.32Z"/><path class="cls-13" d="M38.1,148.5a2.1,2.1,0,0,0-1.19-.63,3.81,3.81,0,0,0-3.55,1.22,4.34,4.34,0,0,0-.94,3.67,1.57,1.57,0,0,0,.4.85,1.6,1.6,0,0,0,1.43.23C35.93,153.49,39.89,150.56,38.1,148.5Z"/><path class="cls-38" d="M38.07,150a.77.77,0,1,0-.86,1.09,3.44,3.44,0,0,0-1.43.11,1.15,1.15,0,0,0-.79,1.09c0,.48.68.84,1,.53"/><path class="cls-38" d="M40.11,148.61a1.36,1.36,0,0,1,.09,2"/><path class="cls-14" d="M38,156.67a1.08,1.08,0,1,1-1.6.18A1.14,1.14,0,0,1,38,156.67Z"/><path class="cls-39" d="M37.05,156.93a.6.6,0,0,0-.4.48.65.65,0,0,0,.26.57.71.71,0,0,0,.62.08"/><polygon class="cls-40" points="79.44 174.21 72.5 188.95 57.52 186.18 57.3 187.37 73.2 190.32 80.53 174.73 79.44 174.21"/><path class="cls-16" d="M371.66,15H345a7.5,7.5,0,0,1-7.5-7.51h0A7.5,7.5,0,0,1,345,0h26.65a7.5,7.5,0,0,1,7.5,7.5h0A7.5,7.5,0,0,1,371.66,15Z"/><line class="cls-41" x1="343.46" y1="3.75" x2="373.21" y2="3.75"/><line class="cls-41" x1="343.46" y1="7.5" x2="373.21" y2="7.5"/><line class="cls-41" x1="357.29" y1="11.25" x2="373.21" y2="11.25"/><path class="cls-16" d="M151.7,43.42H125.43A7.39,7.39,0,0,1,118,36h0a7.4,7.4,0,0,1,7.4-7.4H151.7a7.4,7.4,0,0,1,7.4,7.4h0A7.39,7.39,0,0,1,151.7,43.42Z"/><path class="cls-24" d="M134,36.25a1.67,1.67,0,1,1-1.66-1.66A1.66,1.66,0,0,1,134,36.25Z"/><path class="cls-24" d="M146.45,36.25a1.67,1.67,0,1,1-1.67-1.66A1.67,1.67,0,0,1,146.45,36.25Z"/><path class="cls-24" d="M140.29,36.25a1.67,1.67,0,1,1-1.66-1.66A1.66,1.66,0,0,1,140.29,36.25Z"/><path class="cls-10" d="M215.76,77.48l-28.42-2.7a4.86,4.86,0,0,1-4.54-4.72V59.33a4.88,4.88,0,0,1,4.64-4.73l28.42-2.16a4.93,4.93,0,0,1,5.45,4.73V72.76A4.93,4.93,0,0,1,215.76,77.48Z"/><path class="cls-10" d="M190.45,73.62l-2.6,7.06a.56.56,0,0,0,.92.56l8.81-8Z"/><path class="cls-24" d="M206.47,65.16a1.69,1.69,0,1,0,1.69-1.59A1.64,1.64,0,0,0,206.47,65.16Z"/><path class="cls-24" d="M200.76,65.16a1.69,1.69,0,1,0,1.68-1.59A1.63,1.63,0,0,0,200.76,65.16Z"/><path class="cls-24" d="M195,65.16a1.68,1.68,0,1,0,1.68-1.59A1.63,1.63,0,0,0,195,65.16Z"/><path class="cls-26" d="M158.26,95.67a6.18,6.18,0,0,0,6.18,6.17L166,98.91c3.41,0,6.18-5.14,6.18-8.55V88A6.18,6.18,0,0,0,166,81.87h-1.54A6.18,6.18,0,0,0,158.26,88Z"/><path class="cls-26" d="M170.92,87.86a11.21,11.21,0,0,1,1.28-.1,9.78,9.78,0,0,0,.09,1.61,10.4,10.4,0,0,0,10.61,8.81,10.51,10.51,0,1,1-12-10.32Z"/><path class="cls-13" d="M154,141l0-.09a.18.18,0,0,0,.05-.07,46.36,46.36,0,0,1,4.14-12.46c1.41-2.72,4.24-5.29,5.49-6.59,3.22,1.76,6.4,1,9.41,3.22a28,28,0,0,1,.94,4q.67,3.94,1.19,7.36c4.66.44,16.19,1.33,20.52,2.18a4.35,4.35,0,0,1,3.12,1.91c-.22,4.2-3.63,6.56-5.69,9.92-.36.6-27.94.08-32.68.32C161.14,151.08,151.18,151.16,154,141Z"/><path class="cls-12" d="M197.09,146.47a18.27,18.27,0,0,0,1.74-2.95c.44-1.87.43-3.13-.11-3.58-2-1.68-9,1.83-26.48,28.05-3.81,5.71-11.7,16.76-9.34,15.26,4-2.57,5-5.71,7.6-8.37C191.44,153.13,193.69,150.4,197.09,146.47Z"/><path class="cls-13" d="M161.93,182.43l3.1-5a1.44,1.44,0,0,1,1.26-.72l-2.39,3.82a1.75,1.75,0,0,0,.25,2.23,1.19,1.19,0,0,0,.68.25l-.71,1.15a1.3,1.3,0,0,1-1.93.45A1.74,1.74,0,0,1,161.93,182.43Z"/><path class="cls-12" d="M167.33,93.3c.18,6.8,3.88,8.23,3.88,8.23.45,2.77-10.45,6.61-10.22,6.16s2.54-3.71,3.3-6.7a6.09,6.09,0,0,0-.94-5S166.67,93.66,167.33,93.3Z"/><path class="cls-12" d="M161.34,117.59l-4.81-8.53c-1.79-2.54-.89-5.8,2-6.53L175,98.67c1.81-.3,3.43,2.55,2.9,5.67l-3.08,10.25Z"/><path class="cls-14" d="M192.23,148.41a15.39,15.39,0,0,0,1.16-3.14c.08-1.88-.24-3-.76-3.45-2.35-2.14-7.51,1.82-15.88,19-4.21,8.67-7.58,16.74-13.28,21.38-.83.68-1.05.77-1.32,1.56a11.34,11.34,0,0,0-.36,5.39c1.26-1.16,3.57-5,6.6-8.78C175,172.25,184.61,160.45,192.23,148.41Z"/><path class="cls-13" d="M160.16,187.37l2.69-5.2a1.4,1.4,0,0,1,1.19-.81l-2.07,4a1.72,1.72,0,0,0,.43,2.19,1.09,1.09,0,0,0,.69.2l-.61,1.2a1.31,1.31,0,0,1-1.89.61A1.74,1.74,0,0,1,160.16,187.37Z"/><path class="cls-15" d="M174.13,99.75c-1.59,9.59,5.33,26.09,5.33,26.09s2.37.9,2.92-.67c.69-2-1.88-6.94-3-19.92C178.68,97.22,174.39,98.18,174.13,99.75Z"/><path class="cls-14" d="M187.45,107.58s.41.17.55-.14a6.07,6.07,0,0,0,.28-2c0-.45-.38-2.56-.38-2.56a2.49,2.49,0,0,0-.25,1.54A11,11,0,0,1,187.45,107.58Z"/><path class="cls-14" d="M187.47,107.29a3.13,3.13,0,0,0-.45-2.66,1.81,1.81,0,0,1-.21-1.57,13.63,13.63,0,0,1,1,2.13,4.3,4.3,0,0,1,.35,1.4C188.21,108,186.66,109.21,187.47,107.29Z"/><path class="cls-14" d="M180.16,124.85c-.2-3.21,5.19-11.69,5.19-11.69s3-2.55-1.91,9.89C182,126.79,180.21,125.64,180.16,124.85Z"/><path class="cls-14" d="M187.41,106.41l.36.19.3,1.37a15.62,15.62,0,0,1-1,3.34c-.52.86-1.17,4.68-1.37,5.11s-2.43.53-2.43.53,1.59-3.67,2.09-5.18a35.12,35.12,0,0,0,.67-4.51,14.91,14.91,0,0,0,.39-1.56s.53.24.15,1.87c-.1.43.43.31.43.31Z"/><path class="cls-14" d="M187.61,108.15a4.25,4.25,0,0,0,.09-1.86c-.16-.42-1.24-2.27-1.24-2.27a2.45,2.45,0,0,0,.3,1.53A8.56,8.56,0,0,1,187.61,108.15Z"/><path class="cls-14" d="M187,107.88s-.35.11-.48,0a2.46,2.46,0,0,0,.06.33c0,.21,0,1.66,0,1.66a12.37,12.37,0,0,1,.36-1.33,5.29,5.29,0,0,0,.23-1,1.87,1.87,0,0,0,0-.21Z"/><path class="cls-14" d="M186.57,107.57c.25-1.1.1-1.56,0-1.75-.06.26-.16.67-.33,1.25a8.57,8.57,0,0,0-.15,1.17,1.8,1.8,0,0,1,.58,1,3.53,3.53,0,0,0,.29-1.38C186.79,107.91,186.49,107.9,186.57,107.57Z"/><path class="cls-16" d="M173.62,120.86c0,1.17-.82,3.83-1.71,3.85L163,124c-.89,0-3.08-.75-3.11-1.92l-.07-3.94a1.93,1.93,0,0,1,1.57-2.16l11.06-3.09c.89,0,1.63.92,1.66,2.09Z"/><path class="cls-16" d="M176,103.39c-.17-.57-1-4-1.26-4.47-4.67,5.33-13.64,5.53-17.31,4.49a1.4,1.4,0,0,0-1.62.58c-.28.51-.32,1.35.68,2.76,1.62,2.3,1.51,4.45,1.5,7.25,0,2.24,3.2,4.07,4.71,4.07,5.62,0,6.88-.36,12.23-2,1.44-.45,4-2.91,3.39-4.94Q177.11,107.25,176,103.39Z"/><path class="cls-16" d="M155.6,104.65c-1.28,11.36-4.42,26-4.42,26s3.12,2.52,4.12,1.11c1.28-1.79,2.47-8.4,3.86-21C160,103,155.78,103,155.6,104.65Z"/><path class="cls-14" d="M138.68,148.74a4.27,4.27,0,0,0-1,1.53c-.08.45-.12,2.58-.12,2.58a2.52,2.52,0,0,0,.54-1.46A8.31,8.31,0,0,1,138.68,148.74Z"/><path class="cls-14" d="M138.17,150.12a3.11,3.11,0,0,0-.85,2.53,1.83,1.83,0,0,1-.56,1.49,13.1,13.1,0,0,1,.11-2.36c0-.46.12-.93.2-1.39C137.35,148.88,139.79,148.82,138.17,150.12Z"/><path class="cls-14" d="M139.56,147.8c.1.56-.44,1.48-.27,1.8a3.89,3.89,0,0,0,1,1.25c-1.13.34-1.8-1.21-2.44-1.55S139.29,146.37,139.56,147.8Z"/><path class="cls-14" d="M143.94,142.8c-1.67,1.31-3.6,2.78-4.2,3.86-.85,1.53-.62,2.7-1.57,3.46a3.7,3.7,0,0,0-.28.28c-.25.26-.57.5-.66.62s-.34.54-.31.34a16.4,16.4,0,0,1,1-4.15,53.33,53.33,0,0,1,5.3-5.75C144.89,140.14,146.18,141,143.94,142.8Z"/><path class="cls-14" d="M138.07,150s-.27-.34-.55-.14a6.09,6.09,0,0,0-1.2,1.66c-.21.4-.88,2.43-.88,2.43a2.5,2.5,0,0,0,.95-1.23A10.53,10.53,0,0,1,138.07,150Z"/><path class="cls-14" d="M145.22,139c1.45-.05,4.92-2.23,5.24-1.53-2.42,3.43-12,9.12-12,9.12Z"/><path class="cls-16" d="M144.4,140.94a1.34,1.34,0,0,1,.84,1.37c2.53-1.94,9.6-7.36,10.24-10.95.19-1.08-1.9-3.82-5.17.1-4,4.81-5.95,7.57-6.7,9.26A1.84,1.84,0,0,1,144.4,140.94Z"/><path class="cls-14" d="M168.17,88.1c.34,2.92.42,6.07-1.11,8.58a5.2,5.2,0,0,1-1.77,1.84,3.32,3.32,0,0,1-2.47.43c-1.52-.37-2.43-1.89-3-3.35a19.31,19.31,0,0,1-1.23-5.13,6.89,6.89,0,0,1,.22-3c.69-1.92,2.7-3.29,4.41-4.25,1.47-.83,2.81-.76,3.78.75A9.78,9.78,0,0,1,168.17,88.1Z"/><g class="cls-42"><path class="cls-43" d="M160.78,94a1,1,0,0,0,.14.38.31.31,0,0,0,.58-.11,1,1,0,0,0,0-.34,10,10,0,0,0-.19-1.2.48.48,0,0,0-.15-.29C160.74,92.12,160.76,93.75,160.78,94Z"/><path class="cls-21" d="M162.76,92c0,.26.17.46.32.44s.23-.24.2-.51-.18-.46-.32-.45S162.72,91.69,162.76,92Z"/><path class="cls-44" d="M163.89,90.79a1.65,1.65,0,0,0-1.75,0"/><path class="cls-21" d="M159.19,92.51c.09.25.27.41.41.37s.18-.29.09-.54-.27-.42-.4-.38S159.11,92.25,159.19,92.51Z"/><path class="cls-44" d="M160.07,91.14a1.62,1.62,0,0,0-1.71.39"/><path class="cls-23" d="M166.69,92.39a1.86,1.86,0,0,0-1.4.8,1.71,1.71,0,0,0-.23.69,3.43,3.43,0,0,0,1,3,1.92,1.92,0,0,0,.64.42,1.68,1.68,0,0,0,.67.09A2.67,2.67,0,0,0,169.68,96C170.71,94,168.58,92.14,166.69,92.39Z"/><path class="cls-23" d="M160.82,96.26a1,1,0,0,1-.31,1,.94.94,0,0,1-1-.2,4,4,0,0,1-.7-.72c-.44-.56-1.5-2.74,0-2.74C159.92,93.6,160.71,95.36,160.82,96.26Z"/><path class="cls-24" d="M164.14,94.87l-3,1.39s1.07,1.3,2.06,1C164.63,96.86,164.14,94.87,164.14,94.87Z"/></g><path class="cls-45" d="M158.53,89.57a30.88,30.88,0,0,1,4.83-.76c2.11-.11,4.35-.27,6.08-1.48a2.73,2.73,0,0,0,1.32-2.1,2.54,2.54,0,0,0-.74-1.61c-1.43-1.57-3.77-2-5.89-1.74a8.58,8.58,0,0,0-5.31,2.23,5.39,5.39,0,0,0-1.54,3C157.2,87.7,157.29,90.55,158.53,89.57Z"/><path class="cls-45" d="M165.88,89.52c.55,1.15.51,2,1.87,2.29.5.11-.13,2.39.21,2.76.86,1,5.93-1.66,3.77-8.77a9.42,9.42,0,0,0-1.15-2c-.53-.79-1.53-.42-2.57-.23C165,84.17,165,87.71,165.88,89.52Z"/><path class="cls-14" d="M166.77,89.88a2,2,0,0,1,.82-1.06,1.17,1.17,0,0,1,1.28,0,1.22,1.22,0,0,1,.37,1.19,2.56,2.56,0,0,1-.64,1.13,2.33,2.33,0,0,1-.85.64,1,1,0,0,1-1-.17c-.42-.4-.24-1.1,0-1.65"/><path class="cls-46" d="M172.93,124.85c0,.13-.63.2-1.38.15l-8.57-.54c-.75,0-1.36-.19-1.35-.31l0-.49c0-.13.62-.2,1.38-.15l8.56.53c.76,0,1.21-.17,1.36.32Z"/><rect class="cls-40" x="168.31" y="138.17" width="26.3" height="0.54"/><path class="cls-40" d="M179.92,138.14a.72.72,0,0,0,.66.76h13.49c.37,0,.87-.27,1.32-1.33l6.66-12.18c0-.53-.41-.85-.77-.76l-13.84.41a1.31,1.31,0,0,0-.88.92Z"/><path class="cls-47" d="M181.55,138.71H168.24a4.94,4.94,0,0,0,2.16.42h22.16a4.91,4.91,0,0,0,2.16-.42Z"/><path class="cls-48" d="M191,132.46a.94.94,0,1,1,.94.94A.94.94,0,0,1,191,132.46Z"/><path class="cls-14" d="M235.11,162.56s-4.76,9.61-2.21,17.18,5.18,9.18,5.18,9.18l1.28-11.56Z"/><path class="cls-14" d="M267.85,168.51s7.06,12.17-4.17,19.56L263,183s4.51-4.08-.25-12.58Z"/><path class="cls-12" d="M256.6,158.09l-7.06,3.08-7.46-3.08-.36-1.64a6.88,6.88,0,0,0,5.13-6.66v-2.92h5v2.92a6.88,6.88,0,0,0,5.14,6.66Z"/><path class="cls-34" d="M250.6,149.82c-.27-.42,0-1,.13-1.47a8.15,8.15,0,0,0,.16-2.65,4.47,4.47,0,0,1,.53-2.61,2.27,2.27,0,0,1,4.17,1.35C255.42,146.56,252.8,149.36,250.6,149.82Z"/><path class="cls-14" d="M252.31,148.11a9.36,9.36,0,0,1-.52,3.24,4.15,4.15,0,0,1-2.15,2.37,4.1,4.1,0,0,1-3.68-.47,8.32,8.32,0,0,1-2.56-2.84,17.84,17.84,0,0,1-2.44-11,4,4,0,0,1,1-2.6,3.26,3.26,0,0,1,2.34-.71C250.66,136.29,252.41,143.05,252.31,148.11Z"/><path class="cls-49" d="M240.87,140.5a3.75,3.75,0,0,1,1.31-.61c1.7-.52,5.18-2.06,7.19-1.7a9,9,0,0,1,1.07,1.45,8.05,8.05,0,0,1-2.76,3,9.64,9.64,0,0,1-4.89,1.4,3.4,3.4,0,0,1-1.74-.35A18.37,18.37,0,0,1,240.87,140.5Z"/><path class="cls-13" d="M255.56,144a3.5,3.5,0,0,1-.21,1.67,1.84,1.84,0,0,1-1.48,1c-.62,0-1.11-.79-1.44-1.32a13.77,13.77,0,0,1-1.85-6.31c-.57,2.12-3.07,3-5.24,3.35a12.23,12.23,0,0,1-4.39.12,5.48,5.48,0,0,1-3.75-2.39,3.31,3.31,0,0,1,.85-4c.46-.36,1-.56,1.46-1s.72-1,1.15-1.39a3.47,3.47,0,0,1,3-.73c1.84.3,3.58,1.27,5.37,1.78A13.06,13.06,0,0,1,252.4,136C254.85,137.5,255.44,141.39,255.56,144Z"/><path class="cls-24" d="M249.14,148.9a1.68,1.68,0,0,1-1.3,1.79,3.47,3.47,0,0,1-2.35-.52,5.31,5.31,0,0,0,3.63-1.27"/><path class="cls-50" d="M245.67,147.72a1.33,1.33,0,0,0,.25.63.59.59,0,0,0,.62.2.61.61,0,0,0,.33-.43,1.51,1.51,0,0,0,0-.56,17.1,17.1,0,0,0-.4-2,.72.72,0,0,0-.28-.47C245.46,144.68,245.6,147.4,245.67,147.72Z"/><path class="cls-34" d="M252.57,145.51a14,14,0,0,1-2.07-6.34c-.57,2.12-3.07,3-5.24,3.35a12.23,12.23,0,0,1-4.39.12,5.1,5.1,0,0,1-3.49-2.3,6.75,6.75,0,0,0,2.27,1.18,6.51,6.51,0,0,0,1.76.13,14,14,0,0,0,10.08-4.93,34.47,34.47,0,0,0,.76,5.35c.2.9.44,1.79.71,2.67a15.61,15.61,0,0,1,.64,1.8A2.44,2.44,0,0,1,252.57,145.51Z"/><path class="cls-14" d="M250.93,144a1.31,1.31,0,1,0,1.3-1.46A1.39,1.39,0,0,0,250.93,144Z"/><path class="cls-23" d="M250,149.11a2.47,2.47,0,0,1,2.31-3,18.4,18.4,0,0,1,.05,2,9.36,9.36,0,0,1-.52,3.24,2.83,2.83,0,0,1-.16.36l-.29-.23A4.22,4.22,0,0,1,250,149.11Z"/><path class="cls-23" d="M242.39,148.46a1.85,1.85,0,0,1,.31.16,3.85,3.85,0,0,1,1.94,3.23,1.85,1.85,0,0,1,0,.23,11,11,0,0,1-1.2-1.67A16.37,16.37,0,0,1,242.39,148.46Z"/><path class="cls-21" d="M248,145.41c.05.37.24.65.44.63s.33-.34.29-.71-.24-.65-.44-.63S248,145.05,248,145.41Z"/><path class="cls-51" d="M249.63,143.81a2.31,2.31,0,0,0-2.45,0"/><path class="cls-21" d="M243.32,146.1c.05.37.24.65.44.62s.33-.34.29-.71-.24-.65-.44-.62S243.28,145.73,243.32,146.1Z"/><path class="cls-51" d="M244.08,144.3a1.58,1.58,0,0,0-1.81.74"/><path class="cls-52" d="M251.83,143.27a.7.7,0,0,1,.75-.05.74.74,0,0,1,.38.64.83.83,0,0,1-.35.68"/><path class="cls-45" d="M261.73,171.24l6.12-2.73s-3.66-7-5.36-10.29-8.42-3.31-8.42-3.31-2.12,3.57-3.74,4.59a3.61,3.61,0,0,1-.87.39,3.54,3.54,0,0,1-.86-.39c-1.62-1-3.75-4.59-3.75-4.59s-6.71.08-8.42,3.31-5.35,10.29-5.35,10.29l6.12,2.73L237,180l12.43.18L261.9,180Z"/><path class="cls-24" d="M236.72,188.33c0-.34.26-12.76.26-12.76h27v14.12l-13,4.59Z"/><path class="cls-48" d="M249.56,182.72a.94.94,0,1,1,.94.93A.94.94,0,0,1,249.56,182.72Z"/><polygon class="cls-14" points="261.21 202.53 269.46 202.79 269.55 199.72 261.47 198.28 260.45 200.41 261.21 202.53"/><path class="cls-13" d="M271.17,199.47s8.07-1.87,9.18-1.45,4.08,1.79,3.49,4.09-4.68,2.63-7.49,2.12-6.89-1.44-6.89-1.44l-.34-2.81Z"/><path class="cls-53" d="M262.58,197.09,261.3,203s-21.17-2.29-31.3-5.87-18.53-5.35-14.11-11.31S262.58,197.09,262.58,197.09Z"/><path class="cls-54" d="M237.57,199.56l.6,4.59s30.27-5.87,32.66-6.81,14.71-5.69,13.18-9.69-14.55-2.55-24.92,1.19S237.57,199.56,237.57,199.56Z"/><polygon class="cls-14" points="231.37 200.06 238.08 199.64 238.34 202.87 231.03 202.45 231.37 200.06"/><path class="cls-13" d="M230.41,202.93s-8.08,1.87-9.19,1.45-4.08-1.79-3.48-4.09,4.67-2.63,7.48-2.12,6.89,1.44,6.89,1.44l.34,2.81Z"/><path class="cls-5" d="M384.14,148c-.43-1.64-.78-3.56.29-4.88,2-2.48,5.92,0,8,2.38-3.2-5.58-6.5-11.58-6.1-18a4.43,4.43,0,0,1,.69-2.37c1-1.32,3.06-1.34,4.47-.49a10.16,10.16,0,0,1,3.14,3.75,33,33,0,0,1,5.57-26.54,2.67,2.67,0,0,1,1.73-1.28,2.59,2.59,0,0,1,2,1.23,21.3,21.3,0,0,1,4.7,14.44c.27-3.21,5.4-3.8,7.46-1.31s1.68,6.17.77,9.27-2.25,6.23-1.8,9.43c-.33-1.94,2.22-3.46,4-2.68s2.63,3,2.39,5a13.9,13.9,0,0,1-2.33,5.39l-4.37,7.09a3.84,3.84,0,0,0,2.82.29c2.27,2.93.81,7.15-.72,10.52-3.93,8.64-8.17,18.72-15.92,24.53C391.51,176,387.14,159.37,384.14,148Z"/><path class="cls-6" d="M407.68,124.64c.12-.67.22-1.72,1-1.46,1.13.38-.13,3.74-1.15,3.12-.41-.25.12-1.18.16-1.66"/><path class="cls-6" d="M412.64,155.37c.12-.68.22-1.72,1-1.47,1.13.38-.14,3.74-1.16,3.13-.41-.25.13-1.19.17-1.66"/><path class="cls-6" d="M413.4,144c.48-.48,1.16-1.29,1.64-.64.71,1-2.24,3-2.73,1.91-.19-.44.78-.9,1.09-1.27"/><path class="cls-6" d="M399.33,156.82c.48-.49,1.16-1.3,1.64-.64.71.95-2.24,3-2.73,1.91-.19-.44.78-.91,1.09-1.27"/><path class="cls-6" d="M396.53,134.71c.46.5,1.24,1.22.56,1.67-1,.67-2.89-2.36-1.79-2.8.45-.18.87.81,1.23,1.13"/><path class="cls-6" d="M391.55,158.82c.46.5,1.24,1.21.57,1.67-1,.67-2.9-2.37-1.79-2.81.44-.18.86.81,1.22,1.14"/><path class="cls-6" d="M402.82,116.14c0,.68,0,1.73-.79,1.58-1.17-.23-.35-3.73.74-3.25.44.19,0,1.19.05,1.67"/><path class="cls-6" d="M410.38,135.28c-.49.47-1.19,1.26-1.66.6-.69-1,2.31-2.94,2.77-1.84.19.44-.79.88-1.11,1.24"/><path class="cls-6" d="M412.51,124.1c0,.69,0,1.74-.79,1.58-1.17-.23-.35-3.72.74-3.24.44.19,0,1.18.05,1.66"/><path class="cls-6" d="M395.47,148.39c.48.49,1.28,1.17.62,1.65-1,.71-3-2.26-1.89-2.74.45-.19.9.78,1.27,1.09"/><path class="cls-6" d="M399.65,124.84c.48.49,1.28,1.17.63,1.65-1,.71-3-2.26-1.89-2.74.44-.19.89.78,1.26,1.09"/><path class="cls-6" d="M400.19,168.67c.49.48,1.29,1.17.63,1.65-1,.7-3-2.27-1.89-2.74.44-.2.9.78,1.26,1.09"/><path class="cls-6" d="M408.55,163.36c.43-.53,1-1.39,1.58-.78.79.89-2,3.18-2.55,2.14-.24-.42.69-1,1-1.36"/><path class="cls-6" d="M406.53,146.83c-.08-.68-.29-1.71.52-1.68,1.19,0,1,3.61-.19,3.32-.46-.12-.23-1.17-.33-1.64"/><path class="cls-7" d="M403.33,122a393.59,393.59,0,0,1-3.54,72.53"/><g class="cls-55"><path class="cls-4" d="M353.68,89.28a129.24,129.24,0,0,0-.44,21.37c3.24,2.34,6.38,5.06,10.09,6.34l-9.87-3.39q.07,1,.18,2a132.86,132.86,0,0,0,3.62,20.19c1.83.45,3.37.71,3.81.41-1,.71-2.08,1.36-3.17,2A131.47,131.47,0,0,0,366,159.68c7,14.53,14.43,29.32,30,36.09a2.57,2.57,0,0,0,2,.25C384.62,161,372,121.57,354.42,89.49,354.17,89.41,353.93,89.34,353.68,89.28Z"/><path class="cls-56" d="M398,196a1.34,1.34,0,0,0,.23-.13,2.23,2.23,0,0,0,.66-1.29,96.85,96.85,0,0,0-1.78-53.41c-3.14.33-6.14.67-6.83.66,2-1,4.05-2,6-3a100.1,100.1,0,0,0-9.19-19.57,21.62,21.62,0,0,1-8.14.86c.45-.64,3.52-2.5,6-4.26a95.21,95.21,0,0,0-8.84-11.28,33.31,33.31,0,0,1-4.37,4.36c.15-.5,1.25-3.84,2.14-6.72-5.54-5.61-12-10.5-19.5-12.7C372,121.57,384.62,161,398,196Z"/><path class="cls-57" d="M353.92,89a21,21,0,0,1,3.46,5.24c12.89,24.83,22.35,51.26,31.76,77.6l10.5,29.36"/><path class="cls-57" d="M374.94,132.75a49.54,49.54,0,0,0,17.17-9.94"/><path class="cls-57" d="M378.24,142.36a34.58,34.58,0,0,0,18.2-10.21"/><path class="cls-57" d="M372.36,127a20.17,20.17,0,0,1-6.51-3.2q-9.32-6.12-18-13.12"/><path class="cls-57" d="M373.82,131c-10.39-2.89-19.37-9.35-28-15.78"/><path class="cls-57" d="M362.23,104.13a31,31,0,0,0-1.12-17.74"/><path class="cls-57" d="M364.36,108.64a117.49,117.49,0,0,0,1.55-18.45"/><path class="cls-57" d="M382,151.88a21.75,21.75,0,0,1-13,1.56,64.47,64.47,0,0,1-12.76-3.86"/><path class="cls-57" d="M383.23,155.29a34.76,34.76,0,0,1-25.8-2"/><path class="cls-57" d="M385.29,161.67a27.21,27.21,0,0,0,12.18-3.51,51.68,51.68,0,0,0,10.25-7.6"/><path class="cls-57" d="M388.12,169.24a23.41,23.41,0,0,1-13.69,2,37,37,0,0,1-13.13-4.75"/></g><path class="cls-34" d="M304.84,76.94,296,74.76c-1.21-.17-2.6-.16-3.07.81a6,6,0,0,0-.46,1.31c.23.44,12,2.91,12,2.91l.06,0A1.91,1.91,0,0,0,304.84,76.94Z"/><polygon class="cls-24" points="292.48 76.88 304.52 79.79 304.3 80.23 292.36 77.3 292.48 76.88"/><polygon class="cls-24" points="301.35 76.07 300.55 75.88 300.53 77.02 301.3 77.21 301.35 76.07"/><polygon class="cls-24" points="299.64 75.65 298.84 75.46 298.82 76.6 299.6 76.79 299.64 75.65"/><path class="cls-14" d="M306.17,74.14l-1.33,2.8h0a3,3,0,0,1-2.38-.53l-.12-.09.29-3Z"/><path class="cls-34" d="M349.48,64.1s-2,12.33-14.34,11C324.73,74,314.91,59.61,314.91,59.61L306,75.44l-3.81-1.51s3.95-25.48,9.72-25.79,24.57,12.51,24.57,12.51Z"/><path class="cls-34" d="M277.21,74.36l-1.57-9c-.33-1.17-.9-2.44-2-2.48a6.53,6.53,0,0,0-1.39.11c-.32.39,2.2,12.19,2.2,12.19l0,0A1.91,1.91,0,0,0,277.21,74.36Z"/><polygon class="cls-24" points="272.28 63.03 274.48 75.22 273.98 75.2 271.85 63.09 272.28 63.03"/><polygon class="cls-24" points="276.6 70.81 276.45 70.01 275.4 70.45 275.53 71.24 276.6 70.81"/><polygon class="cls-24" points="276.29 69.08 276.14 68.28 275.09 68.72 275.23 69.51 276.29 69.08"/><path class="cls-14" d="M280.3,74.45l-3.09-.09h0a2.93,2.93,0,0,1-.48-2.39l0-.15,2.9-.95Z"/><path class="cls-13" d="M349.23,63c.73.22-.91,7.77-6.58,10.92-4.11,2.28-10.75,1.08-14.25-1.42-14.24-3.25-49.33,2.1-49.33,2.1V71S319.56,54.18,349.23,63Z"/><path class="cls-54" d="M349.59,64.63l-17.27-1.49-.44-13.27c.5-6.59,2.47-13.11,8.29-12.8C350.21,38.84,349.59,64.63,349.59,64.63Z"/><polygon class="cls-54" points="297.18 47.48 304.11 62.22 319.09 59.44 319.31 60.63 303.41 63.58 296.08 47.99 297.18 47.48"/><path class="cls-12" d="M333.67,36.15l2.7,4.47a1.21,1.21,0,0,0,1.69.41l2.21-1.37a2.15,2.15,0,0,0,.7-2.95l-3.82-6.3Z"/><path class="cls-14" d="M327.45,35.62c.72,1.85,2.11,3.79,4.1,3.82,1.64,0,2.49-1.53,3.36-2.92,2.61-4.22,4.29-9.18,2.8-13.93a6.31,6.31,0,0,0-2-3.27c-3.42-2.56-7.66,1.11-8.78,4.35C325.68,27.24,326.11,32.18,327.45,35.62Z"/><path class="cls-58" d="M327.07,28.21a1,1,0,0,0-.88,0"/><path class="cls-23" d="M330.65,35.41a1.57,1.57,0,0,0,.21,1.2A1.23,1.23,0,0,0,332,37a2.42,2.42,0,0,0,1.14-.6,4.83,4.83,0,0,0,1.25-1.62,1.86,1.86,0,0,0,0-1.93C332.78,30.85,330.86,34.06,330.65,35.41Z"/><path class="cls-21" d="M328.52,31.64c0,.32.18.56.35.55s.28-.29.26-.6S329,31,328.78,31,328.49,31.32,328.52,31.64Z"/><path class="cls-21" d="M326.38,31.6c0,.32.1.67.16.63a.61.61,0,0,0,.26-.6c0-.32-.18-.56-.35-.55S326.36,31.29,326.38,31.6Z"/><path class="cls-59" d="M331,28.68a1.93,1.93,0,0,0-1.95-.66"/><path class="cls-13" d="M328.81,26.8c.58,0,1.31-.17,1.4-.74a2.88,2.88,0,0,0,4.19.24c-.17,2.06.47,4.41,2.28,5.41a2.45,2.45,0,0,0,2.24.17,1.47,1.47,0,0,0,.69-2A1.37,1.37,0,0,0,341,28.19,2.13,2.13,0,0,0,339,26.76a2.77,2.77,0,0,0-.13-3.56,4,4,0,0,0-3.56-1.12,3.94,3.94,0,0,0-2.65-2.35,6.81,6.81,0,0,0-4.56-.18C324.07,21,324.19,26.49,328.81,26.8Z"/><path class="cls-13" d="M329.24,20.57A2.9,2.9,0,0,1,330.3,19a5.32,5.32,0,0,1,5.16-.77A6,6,0,0,1,339,22.17a2.22,2.22,0,0,1,.06,1.3,2.27,2.27,0,0,1-1.63,1.21C335.13,25.33,328.36,24.28,329.24,20.57Z"/><path class="cls-25" d="M330.27,22.46a1.07,1.07,0,1,1,1.76.78,4.83,4.83,0,0,1,1.84-.78,1.6,1.6,0,0,1,1.67.84c.25.62-.3,1.47-1,1.33"/><path class="cls-25" d="M326.83,22A1.89,1.89,0,0,0,328,24.59"/><path class="cls-14" d="M334.68,30.56a1.5,1.5,0,1,0,2.09-.82A1.59,1.59,0,0,0,334.68,30.56Z"/><path class="cls-60" d="M336,30.3a.81.81,0,0,1,.8.33.85.85,0,0,1,.05.86.93.93,0,0,1-.71.5"/><path class="cls-61" d="M326.66,35.21a1.16,1.16,0,0,0,.22.55.5.5,0,0,0,.53.17.46.46,0,0,0,.29-.37,1.35,1.35,0,0,0,0-.49,14.4,14.4,0,0,0-.35-1.71.62.62,0,0,0-.24-.41C326.48,32.59,326.6,34.94,326.66,35.21Z"/><path class="cls-24" d="M328.49,37.55c.07.11.29.41.35.48a5.09,5.09,0,0,0,.72.66,1.38,1.38,0,0,0,.3-.29A3.88,3.88,0,0,0,330.4,37,2.36,2.36,0,0,1,328.49,37.55Z"/><path class="cls-62" d="M341.46,60.44l-9.75-4.5,3.94-9.15a4.57,4.57,0,0,1,5.89-2.64h0c2.35.89,3.55,2.79,2.67,6.48Z"/><path class="cls-14" d="M342.22,51.36c.37-1.42,1.06-6.81,1.06-6.81-.37-2.17-4.65-2.4-6.39.07h0l-6.59,14.2a1.23,1.23,0,0,1-2.15.14l-7.3-11.32-1.65.5s5.26,20.52,10,21.17S340.82,56.73,342.22,51.36Z"/><path class="cls-34" d="M322.22,31.06c-1.61,0-2.94,1.76-3,4s1.28,4,2.9,4,2.94-1.76,3-4S323.84,31.07,322.22,31.06Zm0,7.44C321,38.49,320,36.94,320,35s1-3.44,2.23-3.43,2.18,1.56,2.17,3.47S323.42,38.51,322.21,38.5Z"/><path class="cls-34" d="M320.92,45.91h0A1.08,1.08,0,0,1,320,44.6l1.29-5.76,1,.12-.1,5.89A1.09,1.09,0,0,1,320.92,45.91Z"/><path class="cls-14" d="M322.07,45.42c-.06-.28-.33-.27-.47-.06a1.29,1.29,0,0,1-.38,1.09.9.9,0,0,1-.83,0,1.53,1.53,0,0,1-.92-1.31.68.68,0,0,1,.28-.65c.3-.16.66.09.9.34s.56.42.75.28-.31-.81-.74-1.13a1,1,0,0,0-1.42.14c.06-1.25.16-3.93-.27-3.72a6.76,6.76,0,0,0-.6,3.52c-.12-.74-.25-1.48-.38-2.22-.08-.49-.13-1.38-.55-1.33a2.12,2.12,0,0,0-.26,1.61l.09.86-.15-.66c-.06-.28-.13-1-.31-.78a6,6,0,0,0,.28,2.3,3.37,3.37,0,0,0,.37.84,4.55,4.55,0,0,0,.52,1.93c.39.65,1.24,2,2,2.13a.66.66,0,0,0,.77-.35c.05-.12,0-.25.09-.37s.46-.31.71-.45a1.6,1.6,0,0,0,.56-1.43A2.46,2.46,0,0,0,322.07,45.42Z"/><path class="cls-54" d="M340.09,59.23,331.56,56l4-10.61a4.57,4.57,0,0,1,5.89-2.65h0a4.57,4.57,0,0,1,2.64,5.89Z"/><path class="cls-63" d="M338.32,44.54a6.46,6.46,0,0,1,.77-1,4.53,4.53,0,0,0-3.75,2.89l-3.7,9.74Z"/></g></g></svg>